<svg width="46" height="75" viewBox="0 0 46 75" version="1.1" xmlns="http://www.w3.org/2000/svg" xmlns:xlink="http://www.w3.org/1999/xlink">
<title>icon_2</title>
<desc>Created using Figma</desc>
<g id="Canvas" transform="translate(-624 -4483)">
<g id="icon_2">
<g id="Group">
<g id="Group">
<g id="Vector">
<use xlink:href="#path0_fill" transform="translate(633.615 4532.44)" fill="#FFFFFF"/>
</g>
</g>
</g>
<g id="Group">
<g id="Group">
<g id="Vector">
<use xlink:href="#path1_fill" transform="translate(648.996 4532.44)" fill="#FFFFFF"/>
</g>
</g>
</g>
<g id="Vector">
<use xlink:href="#path2_fill" transform="translate(624 4483)" fill="#FFFFFF"/>
</g>
</g>
</g>
<defs>
<path id="path0_fill" d="M 12.267 6.43733e-07L 1.49984 6.43733e-07C 0.671464 6.43733e-07 3.9493e-07 0.668998 3.9493e-07 1.494C 3.9493e-07 2.31901 0.671611 2.988 1.49984 2.988L 12.267 2.988C 13.0952 2.988 13.7668 2.31901 13.7668 1.494C 13.7668 0.668998 13.0952 6.43733e-07 12.267 6.43733e-07Z"/>
<path id="path1_fill" d="M 2.42277 6.43733e-07L 1.49984 6.43733e-07C 0.671611 6.43733e-07 5.74443e-07 0.668998 5.74443e-07 1.494C 5.74443e-07 2.31901 0.671611 2.988 1.49984 2.988L 2.42277 2.988C 3.251 2.988 3.92261 2.31901 3.92261 1.494C 3.92261 0.668998 3.251 6.43733e-07 2.42277 6.43733e-07Z"/>
<path id="path2_fill" d="M 45.1456 25.396L 45.1456 18.6543C 45.1456 15.6338 42.6787 13.1766 39.6466 13.1766L 31.6099 13.1766L 31.6099 9.27001L 32.1096 9.27001C 32.9378 9.27001 33.6094 8.60101 33.6094 7.77601L 33.6094 3.56251C 33.6094 1.598 32.0052 0 30.033 0L 15.1127 0C 13.1406 0 11.5362 1.598 11.5362 3.56251L 11.5362 7.77601C 11.5362 8.60101 12.2078 9.27001 13.0361 9.27001L 13.5358 9.27001L 13.5358 13.1766L 5.49907 13.1766C 2.46674 13.1766 -2.42343e-07 15.6339 -2.42343e-07 18.6543L -2.42343e-07 25.396C -2.42343e-07 26.9644 0.666171 28.38 1.73057 29.3795C 0.666318 30.3789 -2.42343e-07 31.7946 -2.42343e-07 33.3631L -2.42343e-07 40.1046C -2.42343e-07 41.6732 0.666171 43.0888 1.73057 44.0883C 0.666318 45.0878 -2.42343e-07 46.5034 -2.42343e-07 48.072L -2.42343e-07 54.8135C -2.42343e-07 56.3821 0.666171 57.7977 1.73057 58.7972C 0.666318 59.7966 -2.42343e-07 61.2123 -2.42343e-07 62.7808L -2.42343e-07 69.5223C -2.42343e-07 72.5429 2.46689 75 5.49907 75L 39.6463 75C 42.6786 75 45.1453 72.5427 45.1453 69.5223L 45.1453 62.7808C 45.1453 61.2123 44.479 59.7966 43.4148 58.7972C 44.479 57.7977 45.1453 56.3821 45.1453 54.8135L 45.1453 48.072C 45.1453 46.5034 44.479 45.0878 43.4148 44.0883C 44.479 43.0888 45.1453 41.6732 45.1453 40.1046L 45.1453 33.3631C 45.1453 31.7946 44.479 30.3789 43.4148 29.3795C 44.4795 28.3801 45.1456 26.9645 45.1456 25.396ZM 14.5362 3.56251C 14.5362 3.24581 14.7949 2.988 15.113 2.988L 30.0331 2.988C 30.3511 2.988 30.6099 3.24567 30.6099 3.56251L 30.6099 6.28201L 14.5362 6.28201L 14.5362 3.56251ZM 28.61 9.27001L 28.61 13.1766L 16.5357 13.1766L 16.5357 9.27001L 28.61 9.27001ZM 42.146 69.5226C 42.146 70.8953 41.0246 72.0123 39.6466 72.0123L 5.49922 72.0123C 4.12114 72.0123 2.99983 70.8953 2.99983 69.5226L 2.99983 62.7811C 2.99983 61.4084 4.12114 60.2915 5.49922 60.2915L 39.6464 60.2915C 41.0245 60.2915 42.1458 61.4083 42.1458 62.7811L 42.1458 69.5226L 42.146 69.5226ZM 42.146 54.8136C 42.146 56.1864 41.0246 57.3033 39.6466 57.3033L 5.49922 57.3033C 4.12114 57.3033 2.99983 56.1864 2.99983 54.8136L 2.99983 48.0721C 2.99983 46.6994 4.12114 45.5825 5.49922 45.5825L 39.6464 45.5825C 41.0245 45.5825 42.1458 46.6993 42.1458 48.0721L 42.1458 54.8136L 42.146 54.8136ZM 42.146 40.1048C 42.146 41.4775 41.0246 42.5945 39.6466 42.5945L 5.49922 42.5945C 4.12114 42.5945 2.99983 41.4775 2.99983 40.1048L 2.99983 33.3633C 2.99983 31.9906 4.12114 30.8736 5.49922 30.8736L 39.6464 30.8736C 41.0245 30.8735 42.1458 31.9904 42.1458 33.3633L 42.1458 40.1048L 42.146 40.1048ZM 42.146 25.396C 42.146 26.7687 41.0246 27.8855 39.6466 27.8855L 5.49922 27.8855C 4.12114 27.8855 2.99983 26.7687 2.99983 25.396L 2.99983 18.6543C 2.99983 17.2816 4.12114 16.1646 5.49922 16.1646L 39.6464 16.1646C 41.0245 16.1646 42.1458 17.2816 42.1458 18.6543L 42.1458 25.396L 42.146 25.396Z"/>
</defs>
</svg>
