<svg width="75" height="56" viewBox="0 0 75 56" version="1.1" xmlns="http://www.w3.org/2000/svg" xmlns:xlink="http://www.w3.org/1999/xlink">
<title>icon_5</title>
<desc>Created using Figma</desc>
<g id="Canvas" transform="translate(-1506 -4493)">
<g id="icon_5">
<g id="Group">
<g id="Group">
<g id="Vector">
<use xlink:href="#path0_fill" transform="translate(1506 4506.67)" fill="#FFFFFF"/>
</g>
</g>
</g>
<g id="Group">
<g id="Group">
<g id="Vector">
<use xlink:href="#path1_fill" transform="translate(1523.12 4513.92)" fill="#FFFFFF"/>
</g>
</g>
</g>
<g id="Group">
<g id="Group">
<g id="Vector">
<use xlink:href="#path2_fill" transform="translate(1544.66 4513.92)" fill="#FFFFFF"/>
</g>
</g>
</g>
<g id="Group">
<g id="Group">
<g id="Vector">
<use xlink:href="#path3_fill" transform="translate(1513.21 4517.39)" fill="#FFFFFF"/>
</g>
</g>
</g>
<g id="Group">
<g id="Group">
<g id="Vector">
<use xlink:href="#path4_fill" transform="translate(1510.16 4493)" fill="#FFFFFF"/>
</g>
</g>
</g>
<g id="Group">
<g id="Group">
<g id="Vector">
<use xlink:href="#path5_fill" transform="translate(1510.16 4535.69)" fill="#FFFFFF"/>
</g>
</g>
</g>
</g>
</g>
<defs>
<path id="path0_fill" d="M 74.7749 13.0812C 74.6708 12.9444 72.1598 9.69617 66.2699 6.45934C 60.908 3.5125 51.5644 -1.78239e-08 37.5 -1.78239e-08C 31.2817 -1.78239e-08 23.0415 0.91638 15.9955 2.39126C 10.1373 3.61748 2.64726 5.73176 0.233496 8.83995C 0.0833495 9.03327 0.00175781 9.27098 0.00175781 9.51555L 0 17.9783C 0 18.2231 0.0814452 18.4608 0.231592 18.6542C 2.64448 21.7632 10.1348 23.878 15.9934 25.1047C 23.0399 26.58 31.281 27.4967 37.5001 27.4967C 52.191 27.4967 61.5051 23.9807 66.7316 21.0312C 72.4975 17.7774 74.7234 14.4969 74.8154 14.3588C 75.0757 13.9678 75.0594 13.4553 74.7749 13.0812ZM 65.4859 19.1962C 60.5025 21.9756 51.602 25.2887 37.5 25.2887C 24.8527 25.2887 6.0854 21.6874 2.21543 17.573L 2.21704 9.92176C 6.08803 5.80842 24.8543 2.20816 37.5 2.20816C 51.0077 2.20816 59.9471 5.53216 65.0679 8.32058C 66.563 9.13475 67.8279 9.95184 68.8791 10.7113L 61.7009 10.7113C 60.021 10.7113 58.6542 12.0737 58.6542 13.7483C 58.6542 15.4228 60.021 16.7853 61.7009 16.7853L 69.1907 16.7853C 68.1856 17.5499 66.9594 18.3743 65.4859 19.1962ZM 70.0324 14.5773L 61.7008 14.5773C 61.2424 14.5773 60.8693 14.2055 60.8693 13.7485C 60.8693 13.2915 61.2424 12.9196 61.7008 12.9196L 70.0324 12.9196C 70.4907 12.9196 70.8638 13.2915 70.8638 13.7485C 70.8638 14.2054 70.4909 14.5773 70.0324 14.5773Z"/>
<path id="path1_fill" d="M 9.40297 -1.06943e-07C 4.13013 -1.06943e-07 -3.9339e-07 2.85529 -3.9339e-07 6.50023C -3.9339e-07 10.1452 4.13027 13.0003 9.40297 13.0003C 14.6757 13.0003 18.8059 10.145 18.8059 6.50023C 18.8059 2.85529 14.6757 -1.06943e-07 9.40297 -1.06943e-07ZM 9.40297 10.7923C 5.50693 10.7923 2.21528 8.82681 2.21528 6.50037C 2.21528 4.17365 5.50693 2.20831 9.40297 2.20831C 13.299 2.20831 16.5907 4.17379 16.5907 6.50037C 16.5907 8.82666 13.299 10.7923 9.40297 10.7923Z"/>
<path id="path2_fill" d="M 9.40297 -1.06943e-07C 4.13012 -1.06943e-07 1.50204e-06 2.85529 1.50204e-06 6.50023C 1.50204e-06 10.1452 4.13027 13.0003 9.40297 13.0003C 14.6757 13.0003 18.8061 10.145 18.8061 6.50023C 18.8061 2.85529 14.6758 -1.06943e-07 9.40297 -1.06943e-07ZM 9.40297 10.7923C 5.50693 10.7923 2.21528 8.82681 2.21528 6.50037C 2.21528 4.17365 5.50693 2.20831 9.40297 2.20831C 13.2992 2.20831 16.5908 4.17379 16.5908 6.50037C 16.5908 8.82666 13.2993 10.7923 9.40297 10.7923Z"/>
<path id="path3_fill" d="M 3.04687 2.31711e-07C 1.36684 2.31711e-07 -1.2964e-07 1.36245 -1.2964e-07 3.03708C -1.2964e-07 4.71156 1.36684 6.07401 3.04687 6.07401C 4.72675 6.07401 6.0936 4.71156 6.0936 3.03708C 6.0936 1.36245 4.7269 2.31711e-07 3.04687 2.31711e-07ZM 3.04687 3.866C 2.58838 3.866 2.21528 3.49425 2.21528 3.03723C 2.21528 2.5802 2.58838 2.20831 3.04687 2.20831C 3.50522 2.20831 3.87832 2.5802 3.87832 3.03723C 3.87832 3.49425 3.50537 3.866 3.04687 3.866Z"/>
<path id="path4_fill" d="M 65.87 0.264906C 65.6238 0.0550844 65.2978 -0.036174 64.9781 0.0133246L 55.6719 1.47287C 53.3081 1.51493 51.337 3.1843 50.8372 5.4021L 15.4208 5.4021C 14.9209 3.1843 12.9498 1.51493 10.5861 1.47287L 1.27983 0.0131786C 0.960204 -0.0363199 0.633984 0.0549384 0.38789 0.26476C 0.14165 0.474581 2.05142e-07 0.781209 2.05142e-07 1.1039L 2.05142e-07 11.9086C -0.000146279 12.2313 0.141504 12.5379 0.387598 12.7477C 0.589599 12.92 0.845214 13.0128 1.10742 13.0128C 1.1647 13.0128 1.22212 13.0084 1.27969 12.9993L 10.5858 11.5398C 12.9496 11.4977 14.9207 9.8282 15.4205 7.6104L 50.8369 7.6104C 51.3369 9.8282 53.308 11.4976 55.6716 11.5398L 64.9778 12.9993C 65.0351 13.0082 65.0926 13.0128 65.15 13.0128C 65.4121 13.0128 65.6679 12.92 65.8699 12.7477C 66.1161 12.5379 66.2578 12.2313 66.2578 11.9086L 66.2578 1.10405C 66.2579 0.781356 66.1163 0.474727 65.87 0.264906ZM 7.77245 7.61026L 13.1039 7.61026C 12.6716 8.6214 11.6647 9.33234 10.4943 9.33234C 10.4367 9.33234 10.3791 9.33672 10.322 9.34577L 2.21528 10.6173L 2.21528 2.39539L 10.322 3.66687C 10.3788 3.67593 10.4364 3.68031 10.4943 3.68031C 11.6647 3.68031 12.6716 4.39125 13.1039 5.40224L 7.77245 5.40224C 7.16074 5.40224 6.66489 5.8965 6.66489 6.50625C 6.66474 7.11615 7.16074 7.61026 7.77245 7.61026ZM 64.0428 10.6171L 55.936 9.34563C 55.8792 9.33658 55.8216 9.33219 55.7638 9.33219C 54.5932 9.33219 53.5864 8.62126 53.1542 7.61011L 58.4856 7.61011C 59.0973 7.61011 59.5932 7.11586 59.5932 6.50596C 59.5932 5.89606 59.0973 5.40195 58.4856 5.40195L 53.1542 5.40195C 53.5864 4.39081 54.5934 3.68001 55.7638 3.68001C 55.8213 3.68001 55.8789 3.67563 55.936 3.66658L 64.0428 2.3951L 64.0428 10.6171Z"/>
<path id="path5_fill" d="M 65.8699 0.264917C 65.6236 0.0550954 65.2977 -0.0365998 64.9779 0.0133368L 55.6718 1.47289C 53.308 1.51494 51.3369 3.18431 50.8371 5.40211L 15.4207 5.40211C 14.9207 3.18431 12.9496 1.51494 10.586 1.47289L 1.27983 0.0133368C 0.960204 -0.0365998 0.633984 0.0550954 0.38789 0.264917C 0.14165 0.474738 1.11759e-08 0.781368 1.11759e-08 1.10406L 1.11759e-08 11.9088C 1.11759e-08 12.2315 0.14165 12.5381 0.38789 12.7479C 0.589892 12.9202 0.845507 13.0129 1.10771 13.0129C 1.16499 13.0129 1.22241 13.0085 1.27998 12.9995L 10.5861 11.5399C 12.9499 11.4979 14.921 9.82836 15.4208 7.61056L 50.8374 7.61056C 51.3373 9.82836 53.3084 11.4977 55.6721 11.5399L 64.9782 12.9995C 65.0355 13.0084 65.0931 13.0129 65.1505 13.0129C 65.4125 13.0129 65.6683 12.9202 65.8703 12.7479C 66.1165 12.5381 66.2582 12.2315 66.2582 11.9088L 66.2582 1.10406C 66.2579 0.781222 66.1161 0.474592 65.8699 0.264917ZM 7.77216 7.61042L 13.1036 7.61042C 12.6713 8.62156 11.6645 9.3325 10.494 9.3325C 10.4364 9.3325 10.3788 9.33688 10.3217 9.34593L 2.21499 10.6174L 2.21499 2.39555L 10.3217 3.66703C 10.3786 3.67594 10.4361 3.68046 10.494 3.68046C 11.6644 3.68046 12.6713 4.3914 13.1036 5.4024L 7.77216 5.4024C 7.16044 5.4024 6.66445 5.89666 6.66445 6.50641C 6.66445 7.11616 7.16044 7.61042 7.77216 7.61042ZM 64.0426 10.6173L 55.9359 9.34579C 55.8791 9.33674 55.8215 9.33235 55.7636 9.33235C 54.5931 9.33235 53.5863 8.62141 53.154 7.61027L 58.4854 7.61027C 59.0972 7.61027 59.593 7.11601 59.593 6.50626C 59.593 5.89636 59.0972 5.40211 58.4854 5.40211L 53.154 5.40211C 53.5863 4.39097 54.5932 3.68017 55.7636 3.68017C 55.8212 3.68017 55.8788 3.67579 55.9359 3.66674L 64.0426 2.39525L 64.0426 10.6173Z"/>
</defs>
</svg>
