<svg width="70" height="75" viewBox="0 0 70 75" version="1.1" xmlns="http://www.w3.org/2000/svg" xmlns:xlink="http://www.w3.org/1999/xlink">
<title>icon_3</title>
<desc>Created using Figma</desc>
<g id="Canvas" transform="translate(-911 -4483)">
<g id="icon_3">
<g id="Group">
<g id="Group">
<g id="Vector">
<use xlink:href="#path0_fill" transform="translate(921.691 4530.35)" fill="#FFFFFF"/>
</g>
</g>
</g>
<g id="Group">
<g id="Group">
<g id="Vector">
<use xlink:href="#path1_fill" transform="translate(911 4483)" fill="#FFFFFF"/>
</g>
</g>
</g>
</g>
</g>
<defs>
<path id="path0_fill" d="M 12.6671 18.9043C 6.91421 18.9043 2.2341 14.2257 2.2341 8.47516L 2.2341 1.11665C 2.2341 0.499954 1.73412 -7.15257e-07 1.11705 -7.15257e-07C 0.499984 -7.15257e-07 -4.20364e-07 0.499954 -4.20364e-07 1.11665L -4.20364e-07 8.47516C -4.20364e-07 15.4572 5.68242 21.1376 12.6671 21.1376C 13.2842 21.1376 13.7842 20.6376 13.7842 20.0209C 13.7842 19.4042 13.2842 18.9043 12.6671 18.9043Z"/>
<path id="path1_fill" d="M 68.7221 33.1407L 65.3749 33.1407C 64.846 18.6608 54.0807 6.46466 39.7741 4.17569C 39.4195 1.81553 37.3777 0 34.9197 0C 32.4616 0 30.4195 1.81553 30.065 4.17555C 15.7583 6.46451 4.99311 18.6608 4.46425 33.1407L 1.11705 33.1407C 0.499985 33.1407 1.11799e-07 33.6406 1.11799e-07 34.2573L 1.11799e-07 39.4316C 1.11799e-07 40.0483 0.499985 40.5483 1.11705 40.5483L 4.07373 40.5483L 4.07373 57.4872C 4.07373 67.1437 11.9328 75 21.5928 75L 48.2465 75C 57.9065 75 65.7657 67.1437 65.7657 57.4872L 65.7657 40.5483L 68.7224 40.5483C 69.3395 40.5483 69.8394 40.0483 69.8394 39.4316L 69.8394 34.2573C 69.8392 33.6408 69.3392 33.1407 68.7221 33.1407ZM 31.2823 6.25621C 31.8664 6.18121 32.2919 5.66559 32.2547 5.07789L 32.2508 5.01798C 32.2481 4.98121 32.2448 4.94444 32.2448 4.90709C 32.2448 3.43272 33.4448 2.23316 34.9197 2.23316C 36.3945 2.23316 37.5945 3.43272 37.5945 4.90709C 37.5945 4.94444 37.5913 4.98121 37.5885 5.01798L 37.5846 5.07789C 37.5474 5.66559 37.9729 6.18092 38.557 6.25621C 52.215 8.01095 62.603 19.4677 63.1412 33.1407L 39.8541 33.1407L 39.8541 29.6097L 42.016 29.6097C 42.6331 29.6097 43.1331 29.1097 43.1331 28.493L 43.1331 23.3187C 43.1331 22.702 42.6331 22.2021 42.016 22.2021L 27.8232 22.2021C 27.2061 22.2021 26.7061 22.702 26.7061 23.3187L 26.7061 28.493C 26.7061 29.1097 27.2061 29.6097 27.8232 29.6097L 29.9849 29.6097L 29.9849 33.1407L 6.69777 33.1407C 7.23615 19.4677 17.6243 8.01095 31.2823 6.25621ZM 31.1018 27.3764L 28.9401 27.3764L 28.9401 24.4353L 40.8988 24.4353L 40.8988 27.3764L 38.7371 27.3764L 31.1018 27.3764ZM 37.6202 29.6097L 37.6202 33.1407L 32.2188 33.1407L 32.2188 29.6097L 37.6202 29.6097ZM 63.5316 57.4873C 63.5316 65.9125 56.6747 72.767 48.2463 72.767L 21.5927 72.767C 13.1645 72.767 6.30754 65.9125 6.30754 57.4873L 6.30754 40.5483L 63.5315 40.5483L 63.5315 57.4873L 63.5316 57.4873ZM 67.6053 38.3151L 64.6485 38.3151L 5.19049 38.3151L 2.23396 38.3151L 2.23396 35.374L 5.55727 35.374C 5.55771 35.374 5.55815 35.374 5.55874 35.374L 64.2801 35.374C 64.2806 35.374 64.281 35.374 64.2816 35.374L 67.605 35.374L 67.605 38.3151L 67.6053 38.3151Z"/>
</defs>
</svg>
