<svg width="75" height="53" viewBox="0 0 75 53" version="1.1" xmlns="http://www.w3.org/2000/svg" xmlns:xlink="http://www.w3.org/1999/xlink">
<title>icon_1</title>
<desc>Created using Figma</desc>
<g id="Canvas" transform="translate(-310 -4494)">
<g id="icon_1">
<g id="Vector">
<use xlink:href="#path0_fill" transform="translate(346.19 4499.01)" fill="#FFFFFF"/>
</g>
<g id="Vector">
<use xlink:href="#path1_fill" transform="translate(327.471 4499.01)" fill="#FFFFFF"/>
</g>
<g id="Vector">
<use xlink:href="#path2_fill" transform="translate(367.404 4535.3)" fill="#FFFFFF"/>
</g>
<g id="Vector">
<use xlink:href="#path3_fill" transform="translate(322.479 4535.3)" fill="#FFFFFF"/>
</g>
<g id="Vector">
<use xlink:href="#path4_fill" transform="translate(310 4494)" fill="#FFFFFF"/>
</g>
</g>
</g>
<defs>
<path id="path0_fill" d="M 11.98 8.95075e-08L 2.99501 8.95075e-08C 1.37276 8.95075e-08 -6.96214e-07 1.37659 -6.96214e-07 3.00337L -6.96214e-07 14.5164C -6.96214e-07 16.1431 1.37276 17.5197 2.99501 17.5197L 11.98 17.5197C 13.6023 17.5197 14.9751 16.1431 14.9751 14.5164L 14.9751 3.00337C 14.9751 1.37659 13.6023 8.95075e-08 11.98 8.95075e-08ZM 12.4792 14.5164C 12.4792 14.7667 12.2295 15.0169 11.98 15.0169L 2.99501 15.0169C 2.74538 15.0169 2.49589 14.7665 2.49589 14.5164L 2.49589 3.00337C 2.49589 2.75304 2.74552 2.50286 2.99501 2.50286L 11.98 2.50286C 12.2297 2.50286 12.4792 2.75319 12.4792 3.00337L 12.4792 14.5164Z"/>
<path id="path1_fill" d="M 11.98 8.95075e-08L 2.99501 8.95075e-08C 1.37276 8.95075e-08 4.19514e-07 1.37659 4.19514e-07 3.00337L 4.19514e-07 14.5164C 4.19514e-07 16.1431 1.37276 17.5197 2.99501 17.5197L 11.98 17.5197C 13.6023 17.5197 14.9751 16.1431 14.9751 14.5164L 14.9751 3.00337C 14.9751 1.37659 13.6023 8.95075e-08 11.98 8.95075e-08ZM 12.4792 14.5164C 12.4792 14.7667 12.2295 15.0169 11.98 15.0169L 2.99501 15.0169C 2.74538 15.0169 2.49589 14.7665 2.49589 14.5164L 2.49589 3.00337C 2.49589 2.75304 2.74552 2.50286 2.99501 2.50286L 11.98 2.50286C 12.2297 2.50286 12.4792 2.75319 12.4792 3.00337L 12.4792 14.5164Z"/>
<path id="path2_fill" d="M 2.49589 -6.08651e-07C 1.12313 -6.08651e-07 -1.53524e-06 1.12627 -1.53524e-06 2.50286C -1.53524e-06 3.87946 1.12313 5.00572 2.49589 5.00572C 3.86865 5.00572 4.99178 3.87946 4.99178 2.50286C 4.99178 1.12627 3.86865 -6.08651e-07 2.49589 -6.08651e-07Z"/>
<path id="path3_fill" d="M 2.49589 -6.08651e-07C 1.12313 -6.08651e-07 2.67775e-08 1.12627 2.67775e-08 2.50286C 2.67775e-08 3.87946 1.12313 5.00572 2.49589 5.00572C 3.86865 5.00572 4.99178 3.87946 4.99178 2.50286C 4.99178 1.12627 3.86865 -6.08651e-07 2.49589 -6.08651e-07Z"/>
<path id="path4_fill" d="M 73.8769 13.3901L 63.02 1.3766C 62.1465 0.50066 61.0233 -3.04326e-07 59.9002 -3.04326e-07L 3.74376 -3.04326e-07C 1.74714 -3.04326e-07 -3.11731e-15 1.62678 -3.11731e-15 3.75422L -3.11731e-15 5.00558L -3.11731e-15 22.5253L -3.11731e-15 41.2964C -3.11731e-15 43.2986 1.62225 45.0506 3.74376 45.0506L 6.32769 45.0506C 6.92362 49.3262 10.5325 52.5591 14.9751 52.5591C 19.4176 52.5591 23.0265 49.3262 23.6224 45.0506L 51.2528 45.0506C 51.8488 49.3262 55.4577 52.5591 59.9002 52.5591C 64.3427 52.5591 67.9516 49.3262 68.5476 45.0506L 71.1315 45.0506C 73.1281 45.0506 74.8753 43.2986 75 41.2964L 75 16.2684C 75 15.1421 74.6256 14.1409 73.8769 13.3901ZM 68.2197 11.0126L 71.7553 15.017C 72.1297 15.2674 72.2545 15.7679 72.2545 16.1433L 72.2545 20.0226L 57.4043 20.0226L 57.4043 7.50858L 65.0166 7.50858L 68.2197 11.0126ZM 2.49589 7.50858L 10.9818 7.50858C 11.1065 7.50858 11.2314 7.63368 11.2314 7.75891L 11.2314 19.7724C 11.2314 19.8975 11.1067 20.0227 10.9818 20.0227L 2.49589 20.0227L 2.49589 7.50858ZM 14.9751 50.0563C 11.4809 50.0563 8.7354 47.3033 8.7354 43.7993C 8.7354 40.2952 11.4808 37.5422 14.9751 37.5422C 18.4692 37.5422 21.2147 40.2952 21.2147 43.7993C 21.2147 47.3033 18.4692 50.0563 14.9751 50.0563ZM 59.9002 50.0563C 56.4061 50.0563 53.6605 47.3033 53.6605 43.7993C 53.6605 40.2952 56.4059 37.5422 59.9002 37.5422C 63.3943 37.5422 66.1399 40.2952 66.1399 43.7993C 66.1399 47.3033 63.3943 50.0563 59.9002 50.0563ZM 71.0067 42.5479L 68.5476 42.5479C 67.9516 38.2723 64.3427 35.0395 59.9002 35.0395C 59.8598 35.0395 59.8201 35.042 59.7798 35.0424C 59.7367 35.0418 59.6939 35.0395 59.6507 35.0395C 55.2829 35.0395 51.6641 38.2932 51.0401 42.5479L 23.6224 42.5479C 23.0265 38.2723 19.4176 35.0395 14.9751 35.0395C 14.9549 35.0395 14.935 35.0408 14.9148 35.0409C 14.8932 35.0408 14.872 35.0395 14.8503 35.0395C 10.4825 35.0395 6.86366 38.2932 6.23965 42.5479L 3.74376 42.5479C 3.11975 42.5479 2.49589 42.0474 2.49589 41.2965L 2.49589 32.5368L 46.1732 32.5368C 46.9219 32.5368 47.421 32.0362 47.421 31.2854C 47.421 30.5346 46.9219 30.034 46.1732 30.034L 2.49589 30.034L 2.49589 27.531L 41.1814 27.531C 41.9301 27.531 42.4293 27.0305 42.4293 26.2797C 42.4293 25.5288 41.9301 25.0283 41.1814 25.0283L 2.49589 25.0283L 2.49589 22.5255L 10.9818 22.5255C 12.4793 22.5255 13.7272 21.2741 13.7272 19.7724L 13.7272 7.75891C 13.7272 6.25723 12.4793 5.00587 10.9818 5.00587L 2.49589 5.00587L 2.49589 3.75451C 2.49589 3.12876 3.1199 2.50315 3.74376 2.50315L 59.9002 2.50315C 60.2746 2.50315 60.7737 2.75348 61.1481 3.00367L 62.916 5.00587L 57.0299 5.00587C 55.9068 5.00587 54.9084 6.00704 54.9084 7.13331L 54.9084 20.3982C 54.9084 21.5244 55.9068 22.5256 57.0299 22.5256L 72.2546 22.5256L 72.2546 28.7827L 66.1399 28.7827C 65.3911 28.7827 64.892 29.2832 64.892 30.034C 64.892 30.7849 65.3911 31.2854 66.1399 31.2854L 72.2546 31.2854L 72.2546 41.2967C 72.2546 41.9222 71.7555 42.5479 71.0067 42.5479Z"/>
</defs>
</svg>
