<svg width="75" height="75" viewBox="0 0 75 75" version="1.1" xmlns="http://www.w3.org/2000/svg" xmlns:xlink="http://www.w3.org/1999/xlink">
<title>icon_7</title>
<desc>Created using Figma</desc>
<g id="Canvas" transform="translate(-609 -4857)">
<g id="icon_7">
<g id="Group">
<g id="Group">
<g id="Vector">
<use xlink:href="#path0_fill" transform="translate(609 4857)" fill="#FFFFFF"/>
</g>
</g>
</g>
<g id="Group">
<g id="Group">
<g id="Vector">
<use xlink:href="#path1_fill" transform="translate(612.601 4900.13)" fill="#FFFFFF"/>
</g>
</g>
</g>
</g>
</g>
<defs>
<path id="path0_fill" d="M 74.6739 8.96039L 66.0345 0.325839C 65.6006 -0.10761 64.8976 -0.108782 64.4625 0.323348L 58.2803 6.46194C 58.0266 6.7139 57.9094 7.07234 57.9654 7.42537L 58.3546 9.88119L 40.6084 27.6176C 35.3013 24.8704 28.9208 25.4547 24.8334 29.5396C 23.4974 30.8748 22.51 32.4677 21.8983 34.2743C 21.2518 36.1842 19.4835 37.4899 17.4984 37.5235C 12.7949 37.6032 8.41356 39.437 5.16138 42.6874C -1.96854 49.8133 -1.67511 61.7012 5.81565 69.1878C 9.68254 73.0525 14.7223 75 19.6752 75C 24.3166 75 28.8818 73.2889 32.331 69.8415C 35.583 66.5913 37.4182 62.2123 37.498 57.5115C 37.5315 55.5275 38.838 53.7603 40.749 53.114C 42.5564 52.5029 44.1504 51.5158 45.4862 50.1808C 49.5736 46.0956 50.1581 39.7185 47.4094 34.4145L 65.1557 16.6781L 67.6129 17.067C 67.9683 17.1237 68.3299 17.0042 68.5823 16.7468L 74.6818 10.5257C 75.1092 10.0904 75.1055 9.39193 74.6739 8.96039ZM 40.9608 30.4129C 41.3552 30.6813 41.739 30.9749 42.1115 31.2904L 32.4802 40.9162C 32.0808 40.6206 31.6565 40.3664 31.2124 40.1558L 40.9608 30.4129ZM 43.6906 32.8598C 44.0234 33.2485 44.3317 33.6497 44.6128 34.0623L 34.8641 43.8055C 34.6436 43.3411 34.3745 42.8987 34.0611 42.4836L 43.6906 32.8598ZM 26.3632 52.3016C 25.857 52.1509 25.3686 51.925 24.9154 51.6242L 32.465 44.079C 32.7631 44.5259 32.9913 45.0122 33.1443 45.5243L 26.3632 52.3016ZM 33.1374 48.6789C 32.8808 49.5229 32.4191 50.2964 31.7773 50.9377C 31.1256 51.5889 30.3487 52.0392 29.5234 52.2909L 33.1374 48.6789ZM 17.253 62.9789C 17.2533 62.9792 17.2535 62.9793 17.2538 62.9796C 17.2541 62.9799 17.2542 62.98 17.2545 62.9803L 17.7789 63.5045L 16.9719 64.311L 10.6953 58.0379L 11.5023 57.2314L 17.253 62.9789ZM 14.3893 56.9695L 20.989 50.3734C 21.1998 50.8171 21.4541 51.241 21.7499 51.6404L 15.4035 57.9832L 14.3893 56.9695ZM 16.9784 59.5568L 23.3195 53.2193C 23.7386 53.5344 24.1826 53.8014 24.6444 54.0193L 18.0413 60.6187L 16.9784 59.5568ZM 23.3508 50.0405C 23.0716 49.6098 22.8554 49.1441 22.7092 48.6544L 29.4926 41.8747C 29.9826 42.021 30.4485 42.2368 30.8794 42.5161L 23.3508 50.0405ZM 22.716 45.4997C 22.9725 44.6557 23.4344 43.8822 24.076 43.2411C 24.7179 42.5995 25.4917 42.138 26.3361 41.8815L 22.716 45.4997ZM 43.9114 48.6074C 42.8197 49.6986 41.5155 50.5057 40.035 51.0061C 37.235 51.953 35.3205 54.5522 35.271 57.4741C 35.2011 61.5946 33.5978 65.4281 30.7561 68.2681C 24.4943 74.5266 14.0124 74.2329 7.39008 67.6142C 0.767726 60.9956 0.474298 50.5196 6.73595 44.2615C 9.5776 41.4214 13.4131 39.819 17.5361 39.7492C 20.4596 39.6996 23.0603 37.7861 24.0077 34.9877C 24.5086 33.508 25.3162 32.2046 26.4078 31.1136C 28.396 29.1265 31.0509 28.1495 33.809 28.1495C 35.5262 28.1495 37.2823 28.5321 38.9427 29.2822L 28.753 39.4661C 28.4802 39.4371 28.2047 39.4212 27.9267 39.4212C 25.8774 39.4212 23.9506 40.2188 22.5016 41.6671C 21.0525 43.1154 20.2544 45.0409 20.2544 47.0892C 20.2544 47.3671 20.2704 47.6425 20.2994 47.915L 12.8148 55.3954L 12.2897 54.8705C 11.8548 54.436 11.1498 54.436 10.7151 54.8705L 8.33353 57.2507C 7.89867 57.6855 7.89867 58.3899 8.33353 58.8246L 16.1849 66.6715C 16.4022 66.8887 16.6873 66.9972 16.9721 66.9972C 17.257 66.9972 17.5419 66.8887 17.7593 66.6715L 20.1409 64.2912C 20.5757 63.8565 20.5757 63.152 20.1409 62.7174L 19.6157 62.1925L 27.1043 54.7082C 27.3776 54.7375 27.6521 54.7536 27.9265 54.7536C 29.8913 54.7536 31.8558 54.0061 33.3516 52.5114C 34.8007 51.0629 35.5987 49.1374 35.5987 47.0892C 35.5987 46.8113 35.5828 46.5359 35.5537 46.2633L 45.7462 36.0766C 47.7031 40.4007 47.1378 45.3828 43.9114 48.6074ZM 67.3939 14.7795L 64.9436 14.3916C 64.5918 14.3352 64.2342 14.4518 63.9821 14.7038L 46.2096 32.4664C 45.9178 32.0613 45.6039 31.6663 45.2682 31.2829L 61.3873 15.1731C 61.8221 14.7383 61.8221 14.0339 61.3873 13.5993C 60.9524 13.1648 60.2474 13.1648 59.8127 13.5993L 43.6903 29.7126C 43.3228 29.394 42.945 29.0955 42.5579 28.8168L 60.3304 11.0541C 60.5825 10.8021 60.6985 10.445 60.6427 10.0932L 60.2539 7.63953L 65.2445 2.68395L 72.3197 9.75521L 67.3939 14.7795Z"/>
<path id="path1_fill" d="M 8.71642 0.537287C 8.39822 0.0111134 7.71375 -0.1572 7.18742 0.160672C -0.243249 4.65058 -0.0100598 11.9398 0.00342439 12.2479C 0.02966 12.8448 0.522126 13.3096 1.11484 13.3096C 1.12994 13.3096 1.14533 13.3092 1.16057 13.3086C 1.77323 13.284 2.25074 12.7666 2.22832 12.1541C 2.21908 11.8987 2.07193 5.85234 8.33974 2.06512C 8.86577 1.74725 9.03447 1.06317 8.71642 0.537287Z"/>
</defs>
</svg>
