<svg width="49" height="75" viewBox="0 0 49 75" version="1.1" xmlns="http://www.w3.org/2000/svg" xmlns:xlink="http://www.w3.org/1999/xlink">
<title>icon_8</title>
<desc>Created using Figma</desc>
<g id="Canvas" transform="translate(-921 -4857)">
<g id="icon_8">
<g id="Vector">
<use xlink:href="#path0_fill" transform="translate(931.979 4879.52)" fill="#FFFFFF"/>
</g>
<g id="Vector">
<use xlink:href="#path1_fill" transform="translate(926.364 4863.25)" fill="#FFFFFF"/>
</g>
<g id="Vector">
<use xlink:href="#path2_fill" transform="translate(952.331 4864.45)" fill="#FFFFFF"/>
</g>
<g id="Vector">
<use xlink:href="#path3_fill" transform="translate(937.489 4874.94)" fill="#FFFFFF"/>
</g>
<g id="Vector">
<use xlink:href="#path4_fill" transform="translate(935.283 4869.5)" fill="#FFFFFF"/>
</g>
<g id="Vector">
<use xlink:href="#path5_fill" transform="translate(921 4857)" fill="#FFFFFF"/>
</g>
<g id="Vector">
<use xlink:href="#path6_fill" transform="translate(950.502 4916.38)" fill="#FFFFFF"/>
</g>
<g id="Vector">
<use xlink:href="#path7_fill" transform="translate(950.502 4897.62)" fill="#FFFFFF"/>
</g>
<g id="Vector">
<use xlink:href="#path8_fill" transform="translate(939.774 4907)" fill="#FFFFFF"/>
</g>
<g id="Vector">
<use xlink:href="#path9_fill" transform="translate(939.774 4897.62)" fill="#FFFFFF"/>
</g>
<g id="Vector">
<use xlink:href="#path10_fill" transform="translate(929.046 4913.25)" fill="#FFFFFF"/>
</g>
<g id="Vector">
<use xlink:href="#path10_fill" transform="translate(929.046 4894.5)" fill="#FFFFFF"/>
</g>
</g>
</g>
<defs>
<path id="path0_fill" d="M 13.1591 2.48411C 8.94229 2.48411 4.93112 1.64637 1.86674 0.126592C 1.1871 -0.213691 0.398721 0.155595 0.107935 0.952031C -0.182852 1.74554 0.134085 2.66414 0.816359 3.00135C 4.2056 4.68284 8.58877 5.60906 13.1591 5.60906C 13.9004 5.60906 14.5002 4.91019 14.5002 4.04651C 14.5002 3.18299 13.9004 2.48411 13.1591 2.48411Z"/>
<path id="path1_fill" d="M 18.774 3.1251C 19.679 3.1251 20.5668 3.16318 21.4337 3.23643C 22.1566 3.3082 22.8154 2.65356 22.8677 1.79136C 22.9214 0.930762 22.3661 0.183105 21.6275 0.120556C 20.6976 0.0411619 19.7443 5.36442e-08 18.7739 5.36442e-08C 8.24625 5.36442e-08 4.60394e-08 4.80498 4.60394e-08 10.9375C 4.60394e-08 12.3001 0.39287 13.6201 1.16943 14.8591C 1.4313 15.2771 1.83989 15.5 2.25375 15.5C 2.52744 15.5 2.80503 15.4022 3.04339 15.1994C 3.64055 14.6912 3.77281 13.7131 3.33544 13.0159C 2.90196 12.3231 2.68195 11.6243 2.68195 10.9375C 2.68208 7.24189 9.29147 3.1251 18.774 3.1251Z"/>
<path id="path2_fill" d="M 1.67767 0.052465C 0.961323 -0.170338 0.229265 0.337817 0.0433275 1.17248C -0.14261 2.00715 0.286973 2.86013 1.00457 3.07678C 5.8001 4.52786 8.89855 7.14319 8.89855 9.74167C 8.89855 10.6053 9.49836 11.3042 10.2396 11.3042C 10.9808 11.3042 11.5806 10.6053 11.5806 9.74167C 11.5805 5.55017 7.87835 1.92776 1.67767 0.052465Z"/>
<path id="path3_fill" d="M 11.8045 0.476321C 8.59344 1.04087 4.35183 0.865384 1.67893 0.0537137C 0.962587 -0.172165 0.230529 0.335989 0.0433344 1.17212C -0.142603 2.00679 0.286976 2.86123 1.00319 3.07788C 2.83654 3.63335 5.19779 3.93994 7.6493 3.93994C 9.25485 3.93994 10.7857 3.81485 12.2027 3.56758C 12.9347 3.43941 13.4403 2.64283 13.3303 1.78999C 13.2203 0.937161 12.5589 0.370999 11.8045 0.476321Z"/>
<path id="path4_fill" d="M 9.85484 2.68221e-08C 5.93004 2.68221e-08 2.39949 0.781201 0.64069 2.03701C 0.00945757 2.48862 -0.189554 3.45 0.198036 4.1855C 0.584368 4.91938 1.40682 5.14687 2.04195 4.70127C 3.14073 3.91699 5.98247 3.1251 9.85484 3.1251C 14.3087 3.1251 17.081 4.14902 17.8118 4.79897C 17.6481 5.45815 17.8734 6.18911 18.3998 6.5644C 18.6185 6.72158 18.8608 6.79482 19.0992 6.79482C 19.551 6.79482 19.991 6.52925 20.2437 6.04863C 20.469 5.61987 20.5829 5.16211 20.5829 4.6875C 20.5828 0.13125 10.9522 2.68221e-08 9.85484 2.68221e-08Z"/>
<path id="path5_fill" d="M 24.1379 0C 10.6022 0 0 7.5501 0 17.1875L 0 57.8124C 0 67.4499 10.6022 75 24.1379 75C 37.6737 75 48.2759 67.4499 48.2759 57.8125L 48.2759 17.1875C 48.2759 7.5501 37.6737 0 24.1379 0ZM 45.5939 57.8125C 45.5939 65.4359 35.7683 71.875 24.1379 71.875C 12.5076 71.875 2.68195 65.4359 2.68195 57.8125L 2.68195 25.1594C 6.65578 30.676 14.672 34.3749 24.1379 34.3749C 28.3391 34.3749 32.4157 33.6166 36.0288 32.1731L 38.9295 45.6908C 39.0788 46.3912 39.6183 46.8749 40.2285 46.8749C 40.2652 46.8749 40.3018 46.8734 40.3385 46.8703C 40.992 46.8078 41.5118 46.2035 41.5655 45.4421L 42.8031 28.1325C 43.896 27.1871 44.8162 26.1574 45.5938 25.0771L 45.5938 57.8125L 45.5939 57.8125ZM 40.755 25.9995C 40.425 26.2666 40.2154 26.6892 40.1827 27.1545L 39.566 35.7743L 38.2669 29.7226C 38.1739 29.2846 37.9212 28.9154 37.5767 28.7093C 37.3855 28.5964 37.1759 28.5384 36.9665 28.5384C 36.7975 28.5384 36.6273 28.575 36.4675 28.6513C 32.8309 30.3511 28.5669 31.25 24.1379 31.25C 12.5077 31.25 2.68195 24.8108 2.68195 17.1875C 2.68195 9.56411 12.5076 3.12495 24.1379 3.12495C 35.7683 3.12495 45.5939 9.56411 45.5939 17.1875C 45.5939 20.3492 43.8757 23.4803 40.755 25.9995Z"/>
<path id="path6_fill" d="M 1.34104 1.14441e-06C 0.599803 1.14441e-06 -1.87227e-06 0.698877 -1.87227e-06 1.56255L -1.87227e-06 4.6875C -1.87227e-06 5.55117 0.599803 6.25005 1.34104 6.25005C 2.08227 6.25005 2.68208 5.55117 2.68208 4.6875L 2.68208 1.56255C 2.68208 0.698877 2.08227 1.14441e-06 1.34104 1.14441e-06Z"/>
<path id="path7_fill" d="M 1.34104 1.14441e-06C 0.599803 1.14441e-06 -1.87227e-06 0.698877 -1.87227e-06 1.56255L -1.87227e-06 14.0625C -1.87227e-06 14.9262 0.599803 15.625 1.34104 15.625C 2.08227 15.625 2.68208 14.9262 2.68208 14.0625L 2.68208 1.56255C 2.68208 0.698877 2.08227 1.14441e-06 1.34104 1.14441e-06Z"/>
<path id="path8_fill" d="M 1.34104 1.14441e-06C 0.599802 1.14441e-06 -9.36135e-07 0.698877 -9.36135e-07 1.56255L -9.36135e-07 14.0625C -9.36135e-07 14.9262 0.599802 15.625 1.34104 15.625C 2.08227 15.625 2.68208 14.9262 2.68208 14.0625L 2.68208 1.56255C 2.68208 0.698877 2.08227 1.14441e-06 1.34104 1.14441e-06Z"/>
<path id="path9_fill" d="M 1.34104 1.14441e-06C 0.599802 1.14441e-06 -9.36135e-07 0.698877 -9.36135e-07 1.56255L -9.36135e-07 4.6875C -9.36135e-07 5.55117 0.599802 6.25005 1.34104 6.25005C 2.08227 6.25005 2.68208 5.55117 2.68208 4.6875L 2.68208 1.56255C 2.68208 0.698877 2.08227 1.14441e-06 1.34104 1.14441e-06Z"/>
<path id="path10_fill" d="M 1.34104 0C 0.599803 0 0 0.698876 0 1.56255L 0 7.8126C 0 8.67627 0.599803 9.37515 1.34104 9.37515C 2.08227 9.37515 2.68208 8.67627 2.68208 7.8126L 2.68208 1.56255C 2.68195 0.698876 2.08227 0 1.34104 0Z"/>
</defs>
</svg>
