<svg width="75" height="75" viewBox="0 0 75 75" version="1.1" xmlns="http://www.w3.org/2000/svg" xmlns:xlink="http://www.w3.org/1999/xlink">
<title>icon_9</title>
<desc>Created using Figma</desc>
<g id="Canvas" transform="translate(-1207 -4857)">
<g id="icon_9">
<g id="Vector">
<use xlink:href="#path0_fill" transform="translate(1223.22 4869.19)" fill="#FFFFFF"/>
</g>
<g id="Vector">
<use xlink:href="#path1_fill" transform="translate(1207 4857)" fill="#FFFFFF"/>
</g>
</g>
</g>
<defs>
<path id="path0_fill" d="M 1.13078 16.5375C 1.26521 16.5741 1.40045 16.5917 1.53344 16.5917C 2.20781 16.5917 2.82578 16.1406 3.01128 15.4548C 5.85705 4.92106 14.7128 3.12645 15.0896 3.055C 15.9196 2.901 16.4693 2.10102 16.319 1.26594C 16.1678 0.429413 15.3705 -0.127242 14.5378 0.0251147C 14.0857 0.107658 3.42068 2.18624 0.0539697 14.6474C -0.16789 15.4684 0.314439 16.3145 1.13078 16.5375Z"/>
<path id="path1_fill" d="M 72.0024 31.3553L 65.9219 31.3553C 65.4037 24.3996 62.4151 17.936 57.4104 13.0261C 53.5979 9.28554 48.9147 6.74291 43.8322 5.58791C 43.4252 2.43976 40.7421 3.9164e-09 37.5004 3.9164e-09C 34.2587 3.9164e-09 31.5756 2.43996 31.1686 5.58812C 26.0861 6.74353 21.4029 9.28574 17.5904 13.0263C 12.5857 17.9362 9.59717 24.3999 9.07888 31.3555L 2.99858 31.3555C 1.34505 31.3553 0 32.7072 0 34.3685L 0 37.6177C 0 39.2793 1.34505 40.6312 2.99858 40.6312L 20.0783 40.6312C 20.988 41.9048 24.7666 47.57 26.045 49.144C 28.121 51.6998 33.883 52.9482 36.6996 53.4203L 34.5705 72.3433C 34.4751 73.1883 35.0796 73.9511 35.9206 74.0465C 35.9789 74.0533 36.0371 74.0566 36.0945 74.0566C 36.8634 74.0566 37.5266 73.4759 37.615 72.6895L 39.9108 52.2875C 40.0054 51.4477 39.4093 50.6886 38.575 50.5859C 35.1586 50.1647 29.7494 48.835 28.4183 47.1963C 27.2311 45.7349 24.2546 41.2714 23.8185 40.6312L 27.2524 40.6312C 28.0959 41.3952 30.0262 43.0995 32.2826 44.8C 33.8881 46.0107 40.6195 45.86 44.1462 44.8409C 44.4925 44.7411 44.7926 44.5216 44.9936 44.2208L 47.3989 40.6312L 50.3967 40.6312L 46.9033 52.7979C 46.8606 52.9464 46.8402 53.1004 46.8434 53.2548L 47.2165 72.5464C 47.2328 73.3866 47.9156 74.0564 48.7478 74.0564C 48.7578 74.0564 48.7683 74.0564 48.7781 74.0564C 49.624 74.0396 50.2968 73.3369 50.2804 72.4866L 49.9117 53.4281L 53.5861 40.6314L 72.0018 40.6314C 73.655 40.6314 75 39.2795 75 37.6179L 75 34.3685C 75.0006 32.7072 73.6556 31.3553 72.0024 31.3553ZM 37.5004 7.95971C 50.8759 7.95971 61.7227 18.0812 62.8468 31.2809L 12.1541 31.2809C 13.2781 18.0812 24.1251 7.95971 37.5004 7.95971ZM 37.5004 3.07978C 38.843 3.07978 39.9993 3.8855 40.5229 5.04009C 39.5253 4.93455 38.5168 4.87972 37.5004 4.87972C 36.4841 4.87972 35.4755 4.93475 34.4775 5.04009C 35.0015 3.8855 36.1578 3.07978 37.5004 3.07978ZM 42.7754 42.0192C 39.5925 42.7824 34.9889 42.6381 34.0487 42.281C 33.3082 41.7209 32.6019 41.1576 31.9615 40.6312L 43.7049 40.6312L 42.7754 42.0192ZM 71.9363 37.5512L 3.06436 37.5512L 3.06436 34.4351L 71.9363 34.4351L 71.9363 37.5512Z"/>
</defs>
</svg>
