<svg width="74" height="75" viewBox="0 0 74 75" version="1.1" xmlns="http://www.w3.org/2000/svg" xmlns:xlink="http://www.w3.org/1999/xlink">
<title>icon_10</title>
<desc>Created using Figma</desc>
<g id="Canvas" transform="translate(-1507 -4857)">
<g id="icon_10">
<g id="Vector">
<use xlink:href="#path0_fill" transform="translate(1515.76 4871.47)" fill="#FFFFFF"/>
</g>
<g id="Vector">
<use xlink:href="#path1_fill" transform="translate(1507 4857)" fill="#FFFFFF"/>
</g>
</g>
</g>
<defs>
<path id="path0_fill" d="M 63.9859 0.375172C 63.4857 -0.125057 62.6771 -0.125057 62.1769 0.375172L 57.6531 4.89899L 56.2957 3.54159C 54.612 1.85539 51.6477 1.85539 49.9641 3.54159C 49.121 4.38341 48.6566 5.50796 48.6566 6.708C 48.6566 7.90676 49.121 9.03004 49.9641 9.87442L 50.353 10.2633L 43.8654 10.2633C 42.4543 10.2633 41.3067 11.4109 41.3067 12.8221L 41.3067 18.5063C 40.4687 18.1979 39.577 18.0291 38.6571 18.0291C 36.6063 18.0291 34.6796 18.8274 33.2288 20.2782C 31.2919 22.2151 30.6292 24.9338 31.1997 27.4259C 29.4803 26.3078 27.0188 26.4882 25.5399 27.9684C 24.6968 28.8102 24.2324 29.9348 24.2324 31.1348C 24.2324 32.3336 24.6968 33.4569 25.5399 34.3012L 25.9288 34.6902L 19.4399 34.6902C 18.0287 34.6902 16.8811 35.8377 16.8811 37.2489L 16.8811 42.9446C 15.1335 41.2085 12.301 41.211 10.5573 42.9523C 8.81223 44.6986 8.81223 47.5388 10.5573 49.2838L 11.9147 50.6412L 8.05229 54.5036C 7.93331 54.6213 7.83992 54.7633 7.77467 54.9207C 7.70942 55.0767 7.67616 55.2431 7.67616 55.4094C 7.67616 56.8205 6.52857 57.9681 5.11744 57.9681C 3.70631 57.9681 2.55872 56.8205 2.55872 55.4094C 2.55872 53.9982 3.70631 52.8507 5.11744 52.8507C 5.82492 52.8507 6.3968 52.2788 6.3968 51.5713C 6.3968 50.8638 5.82492 50.2919 5.11744 50.2919C 2.29517 50.2919 -1.90334e-07 52.5871 -1.90334e-07 55.4094C -1.90334e-07 58.2316 2.29517 60.5268 5.11744 60.5268C 7.73757 60.5268 9.87922 58.5412 10.1747 55.9992L 13.7237 52.4502L 15.0811 53.8076C 15.9536 54.6801 17.0999 55.1164 18.2462 55.1164C 19.3925 55.1164 20.5401 54.6789 21.4139 53.8076C 23.1577 52.0651 23.159 49.2288 21.4216 47.4837L 27.1173 47.4837C 28.5284 47.4837 29.676 46.3362 29.676 44.925L 29.676 38.4361L 30.065 38.825C 30.9388 39.6988 32.0851 40.1338 33.2314 40.1338C 34.3777 40.1338 35.5253 39.6976 36.3991 38.825C 37.9343 37.2898 38.116 34.9076 36.9492 33.1677C 37.5134 33.2957 38.084 33.3801 38.6597 33.3801C 40.6248 33.3801 42.5912 32.6329 44.0867 31.1361C 45.5375 29.6853 46.3358 27.7573 46.3358 25.7078C 46.3358 24.7879 46.167 23.8975 45.8586 23.0595L 51.5441 23.0595C 52.9552 23.0595 54.1028 21.9119 54.1028 20.5008L 54.1028 14.0131L 54.4905 14.4008C 55.3643 15.2746 56.5106 15.7096 57.6569 15.7096C 58.8032 15.7096 59.9508 15.2733 60.8246 14.4008C 62.5696 12.6557 62.5696 9.81557 60.8246 8.06924L 59.4672 6.71184L 63.991 2.18802C 64.4848 1.68524 64.4848 0.875402 63.9859 0.375172ZM 19.6011 51.9973C 18.8526 52.7445 17.6334 52.7419 16.8875 51.9973L 12.3637 47.4735C 11.6166 46.7251 11.6166 45.5084 12.3637 44.76C 12.7373 44.3864 13.2299 44.1996 13.7224 44.1996C 14.2137 44.1996 14.7062 44.3864 15.0798 44.76L 19.6023 49.2825C 19.9618 49.642 20.1614 50.1243 20.1614 50.6412C 20.1601 51.1555 19.9606 51.6378 19.6011 51.9973ZM 27.1135 44.9237L 19.4373 44.9199L 19.4373 37.2476L 27.1135 37.2476L 27.1135 44.9237ZM 34.5849 37.0135C 33.8646 37.7337 32.5878 37.7325 31.8701 37.0135L 27.3476 32.4909C 26.9881 32.1314 26.7885 31.6491 26.7885 31.1335C 26.7885 30.618 26.9868 30.1369 27.3476 29.7761C 27.7084 29.4154 28.1894 29.2171 28.705 29.2171C 29.2206 29.2171 29.7016 29.4154 30.0624 29.7761L 34.5862 34.2987C 35.3321 35.0484 35.3321 36.265 34.5849 37.0135ZM 42.2739 29.3245C 40.2768 31.319 37.0323 31.319 35.0365 29.3245C 33.0407 27.3287 33.0407 24.0817 35.0365 22.0872C 36.0037 21.12 37.2895 20.5878 38.6559 20.5878C 39.6806 20.5878 40.6593 20.8871 41.4922 21.4437C 41.7519 22.0923 42.2688 22.6092 42.9174 22.8689C 43.4739 23.7017 43.7733 24.6804 43.7733 25.7039C 43.7733 27.0728 43.2411 28.3586 42.2739 29.3245ZM 51.5403 20.4982L 44.2786 20.4944C 44.2121 20.4227 44.152 20.3473 44.0816 20.2782C 44.0112 20.2078 43.9358 20.1464 43.8628 20.0799L 43.8628 12.8221L 51.539 12.8221L 51.539 20.4982L 51.5403 20.4982ZM 59.0105 12.5879C 58.2902 13.3082 57.0147 13.3082 56.2957 12.5879L 51.7731 8.0654C 51.4136 7.7059 51.214 7.22358 51.214 6.708C 51.214 6.19242 51.4123 5.71138 51.7731 5.3506C 52.1339 4.98982 52.6149 4.79152 53.1305 4.79152C 53.6461 4.79152 54.1271 4.98982 54.4879 5.3506L 59.0117 9.87314C 59.7576 10.6228 59.7576 11.8395 59.0105 12.5879Z"/>
<path id="path1_fill" d="M 9.51332 50.9406L 13.9437 46.5102L 16.6573 49.225C 17.1562 49.7239 17.8112 49.9734 18.4663 49.9734C 19.1213 49.9734 19.7763 49.7239 20.2753 49.225L 22.9901 46.5114C 23.4724 46.0291 23.7372 45.3869 23.7372 44.7024C 23.7372 44.2009 23.5927 43.725 23.3278 43.3156C 25.2507 43.2324 27.0482 42.4533 28.4171 41.0831C 29.7873 39.7142 30.5665 37.9167 30.6496 35.9938C 31.0705 36.265 31.5528 36.4019 32.0352 36.4019C 32.6915 36.4019 33.3452 36.1537 33.8455 35.6548L 36.5603 32.94C 37.4238 32.0739 37.5351 30.7357 36.8967 29.7454C 38.8196 29.6623 40.6171 28.8831 41.986 27.5129C 43.3562 26.144 44.1353 24.3465 44.2185 22.4237C 44.6394 22.6949 45.1217 22.833 45.6041 22.833C 46.2604 22.833 46.9141 22.5849 47.4143 22.0859L 50.1279 19.3711C 50.9991 18.5011 51.1091 17.1514 50.4567 16.1574C 52.3105 16.078 54.1425 15.3565 55.5549 13.9441C 57.0057 12.4945 57.804 10.5666 57.804 8.51702C 57.804 6.90119 57.3012 5.36467 56.3801 4.0738L 58.2697 2.18419C 58.7699 1.68396 58.7699 0.875402 58.2697 0.375172C 57.7695 -0.125057 56.9609 -0.125057 56.4607 0.375172L 54.5596 2.2763C 51.5646 0.147446 47.3836 0.404598 44.7008 3.08869C 43.3293 4.46017 42.5502 6.26023 42.4683 8.18566C 41.4871 7.57157 40.1066 7.68159 39.2725 8.51702L 36.559 11.2305C 36.0767 11.7129 35.8118 12.3551 35.8118 13.0396C 35.8118 13.5475 35.959 14.0311 36.2315 14.4443C 34.3764 14.5236 32.5443 15.2452 31.1307 16.6576C 29.7182 18.07 28.9967 19.9033 28.9174 21.7571C 27.9246 21.1046 26.5749 21.2147 25.7023 22.0859L 22.9888 24.7994C 22.1214 25.6656 22.0101 27.005 22.6498 27.9953C 20.7269 28.0784 18.9294 28.8576 17.5605 30.2277C 16.1468 31.6414 15.4252 33.476 15.3472 35.3324C 14.3646 34.7068 12.974 34.8143 12.1334 35.6548L 9.4212 38.367C 8.9376 38.8494 8.6715 39.4929 8.6715 40.1773C 8.6715 40.8618 8.93761 41.5053 9.41992 41.9863L 12.1334 44.6999L 6.94692 49.8851C 6.94053 49.8915 6.93157 49.8941 6.92517 49.9005C 6.42494 50.3994 6.42494 51.2092 6.92517 51.7095C 7.92179 52.7074 7.92179 54.3309 6.92517 55.3288C 5.92983 56.3241 4.30377 56.3267 3.30587 55.3288C 2.30796 54.3309 2.30796 52.7074 3.30587 51.7095C 3.80609 51.2092 3.80609 50.4007 3.30587 49.9005C 2.80564 49.4002 1.99708 49.4002 1.49685 49.9005C -0.49895 51.8963 -0.49895 55.1433 1.49685 57.1378C 2.49475 58.1344 3.80482 58.6334 5.11488 58.6334C 6.42494 58.6334 7.73757 58.1344 8.73419 57.1378C 10.4127 55.4606 10.6609 52.9018 9.51332 50.9406ZM 46.5111 4.89771C 47.5077 3.90109 48.8191 3.40086 50.1291 3.40086C 51.4392 3.40086 52.7506 3.90109 53.7472 4.89771C 54.7144 5.8649 55.2466 7.15066 55.2466 8.51702C 55.2466 9.88337 54.7144 11.1678 53.7472 12.135C 51.7527 14.1296 48.5044 14.1296 46.5111 12.135C 45.5439 11.1678 45.0117 9.88337 45.0117 8.51702C 45.0117 7.15066 45.5439 5.8649 46.5111 4.89771ZM 41.0828 10.326L 48.3201 17.5621L 45.6041 20.2743L 38.3693 13.0396L 41.0828 10.326ZM 32.9397 18.4679C 33.9376 17.4713 35.2489 16.9723 36.559 16.9723C 37.869 16.9723 39.1804 17.4713 40.177 18.4679C 41.1442 19.4351 41.6764 20.7208 41.6764 22.0872C 41.6764 23.4535 41.1442 24.738 40.177 25.7052C 38.2439 27.6383 34.8766 27.6383 32.9422 25.7078L 32.9358 25.7014C 30.9452 23.7056 30.9464 20.4611 32.9397 18.4679ZM 27.5126 23.8962L 34.75 31.1335L 32.0326 33.8445L 24.7991 26.6097L 27.5126 23.8962ZM 19.3708 32.038C 20.338 31.0708 21.6237 30.5386 22.9901 30.5386C 24.3564 30.5386 25.6409 31.0708 26.6081 32.038C 27.5753 33.0052 28.1075 34.2897 28.1075 35.6561C 28.1075 37.0224 27.5753 38.3069 26.6081 39.2741C 24.6737 41.2085 21.3039 41.2085 19.3708 39.2741C 17.375 37.2796 17.375 34.0338 19.3708 32.038ZM 13.9437 37.4651L 21.1811 44.7024L 18.4637 47.4134L 11.2302 40.1786L 13.9437 37.4651Z"/>
</defs>
</svg>
