<svg width="75" height="42" viewBox="0 0 75 42" version="1.1" xmlns="http://www.w3.org/2000/svg" xmlns:xlink="http://www.w3.org/1999/xlink">
<title>icon_6</title>
<desc>Created using Figma</desc>
<g id="Canvas" transform="translate(-310 -4874)">
<g id="icon_6">
<g id="Vector">
<use xlink:href="#path0_fill" transform="translate(310 4874)" fill="#FFFFFF"/>
</g>
</g>
</g>
<defs>
<path id="path0_fill" d="M 74.9927 40.5556C 74.0029 31.9164 69.2709 22.5707 61.6685 14.2401C 53.6527 5.4563 44.3918 1.3431e-07 37.5 1.3431e-07C 30.6087 1.3431e-07 21.348 5.45659 13.3319 14.2401C 5.72937 22.5707 0.997346 31.9163 0.00725932 40.5553C -0.0289223 40.8711 0.0712729 41.1877 0.28265 41.4251C 0.494026 41.6624 0.79637 41.7981 1.11409 41.7981L 25.4889 41.7983C 25.4902 41.7983 25.4914 41.7984 25.4927 41.7984L 49.5088 41.7984C 49.5094 41.7984 49.5101 41.7983 49.5107 41.7983L 73.8864 41.7984C 74.204 41.7984 74.5064 41.6627 74.7179 41.4254C 74.9288 41.188 75.029 40.8716 74.9927 40.5556ZM 7.19495 39.462C 7.93909 37.2212 9.78127 34.2139 12.3793 31.1251L 16.3862 31.1251C 15.0373 34.2047 14.1764 37.1732 13.7462 39.462L 7.19495 39.462ZM 55.2211 24.8256C 54.7448 24.1296 54.2504 23.4699 53.7412 22.8426C 55.443 24.0555 56.8905 25.2684 58.0106 26.2836C 58.9632 27.1468 59.8546 28.0215 60.6835 28.8943L 57.6123 28.8943L 57.6123 28.8942C 56.9143 27.5111 56.1192 26.1374 55.2211 24.8256ZM 37.5002 16.8344C 37.7082 16.8342 37.9146 16.8382 38.1194 16.8451C 38.1346 16.8455 38.15 16.846 38.1652 16.8466C 46.3543 17.1425 51.7537 22.882 55.0497 28.8943L 43.2945 28.8943C 41.5461 28.0289 39.5792 27.5416 37.5006 27.5416C 35.422 27.5416 33.455 28.0289 31.7067 28.8943L 19.9506 28.8943C 23.3352 22.7208 28.9373 16.8344 37.5002 16.8344ZM 19.8642 24.8223C 18.955 26.1404 18.1507 27.5146 17.4444 28.8943L 14.3787 28.8943C 16.4261 26.7451 18.8 24.6363 21.3871 22.7981C 20.8634 23.4375 20.3549 24.111 19.8642 24.8223ZM 59.5052 24.6291C 55.4735 20.9759 47.4229 14.9085 38.1926 14.6154C 38.1657 14.6145 38.1389 14.6137 38.1118 14.6129C 37.9083 14.6071 37.7045 14.6032 37.5 14.6032C 37.2979 14.6032 37.0963 14.6071 36.8952 14.6129C 36.8691 14.6136 36.8431 14.6143 36.817 14.6152C 27.6945 14.9079 19.63 20.9746 15.5797 24.6274C 13.9621 26.0863 12.4485 27.6408 11.0922 29.2115C 11.0473 29.2554 11.0066 29.3035 10.9696 29.3542C 10.9127 29.4206 10.8568 29.487 10.8007 29.5535C 12.7852 25.8476 15.4184 22.1437 18.5719 18.6881C 24.9853 11.6605 32.9457 6.55994 37.5 6.55994C 42.0547 6.55994 50.0154 11.6605 56.4287 18.6881C 59.4878 22.0403 62.0571 25.6264 64.0198 29.2212C 63.969 29.1701 63.9132 29.1242 63.8534 29.0837C 62.5339 27.5554 61.0689 26.0458 59.5052 24.6291ZM 24.4359 39.4622L 16.0174 39.4622C 16.4705 37.2672 17.3738 34.2459 18.8232 31.1252L 28.5046 31.1252C 26.2436 33.2609 24.7383 36.1893 24.4359 39.4622ZM 31.7642 39.4148C 32.2855 36.7199 34.6594 34.6788 37.5005 34.6788C 40.3415 34.6788 42.7156 36.7199 43.2368 39.4148L 31.7642 39.4148ZM 45.4985 39.462C 44.9747 35.5089 41.589 32.4476 37.5006 32.4476C 33.4123 32.4476 30.0264 35.5087 29.5027 39.462L 26.6762 39.462C 27.2841 34.0185 31.9055 29.7725 37.5006 29.7725C 43.0957 29.7725 47.7173 34.0186 48.3251 39.462L 45.4985 39.462ZM 50.5653 39.4622C 50.2628 36.1893 48.7574 33.2606 46.4965 31.1252L 56.1771 31.1252C 57.6262 34.2459 58.5296 37.2674 58.9827 39.4622L 50.5653 39.4622ZM 61.2548 39.4622C 60.826 37.1617 59.9766 34.1909 58.6546 31.1252L 62.6731 31.1252C 65.3271 34.3021 67.0866 37.302 67.804 39.4622L 61.2548 39.4622ZM 70.1861 39.5672C 68.8902 32.3462 64.5136 24.2405 58.073 17.1831C 51.0566 9.49472 42.789 4.32889 37.5 4.32889C 32.2114 4.32889 23.9441 9.49443 16.9277 17.1831C 10.487 24.2404 6.11023 32.3461 4.81414 39.5669L 2.38968 39.5669C 3.62176 31.7377 8.05554 23.3287 14.9763 15.7451C 22.5837 7.4092 31.2144 2.23105 37.5 2.23105C 43.7863 2.23105 52.4168 7.40935 60.0242 15.7451C 66.9453 23.3293 71.3789 31.7374 72.6106 39.5672L 70.1861 39.5672Z"/>
</defs>
</svg>
