<svg width="75" height="46" viewBox="0 0 75 46" version="1.1" xmlns="http://www.w3.org/2000/svg" xmlns:xlink="http://www.w3.org/1999/xlink">
<title>icon_4</title>
<desc>Created using Figma</desc>
<g id="Canvas" transform="translate(-1207 -4498)">
<g id="icon_4">
<g id="Vector">
<use xlink:href="#path0_fill" transform="translate(1207 4498)" fill="#FFFFFF"/>
</g>
</g>
</g>
<defs>
<path id="path0_fill" d="M 48.9851 26.1523C 48.9685 26.0813 48.9446 26.0124 48.9136 25.9466C 47.6771 23.3108 45.5533 21.1693 42.9334 19.9162C 41.2569 19.1143 39.3901 18.6893 37.533 18.6862C 37.5311 18.6862 37.5292 18.6859 37.5272 18.6859C 37.5261 18.6859 37.525 18.6861 37.5239 18.6861C 37.52 18.6861 37.5162 18.6859 37.5123 18.6859C 35.6584 18.6859 33.7931 19.1069 32.1177 19.9037L 31.172 20.3533C 28.3494 21.6953 26.1335 24.0284 24.9328 26.9229C 24.9019 26.9972 24.8798 27.075 24.8668 27.1544L 22.6024 40.9903C 22.553 41.2921 22.6382 41.6004 22.8354 41.8334C 23.0326 42.0665 23.3218 42.201 23.6264 42.201L 51.4279 42.201C 51.429 42.2011 51.4299 42.2011 51.4306 42.201C 52.0037 42.201 52.4684 41.7347 52.4684 41.1592C 52.4684 41.0498 52.4515 40.9442 52.4204 40.845L 48.9851 26.1523ZM 38.5651 40.1173L 38.5651 24.7933C 38.5651 24.2178 38.1005 23.7516 37.5274 23.7516C 36.9542 23.7516 36.4896 24.2178 36.4896 24.7933L 36.4896 40.1173L 24.8488 40.1173L 26.8951 27.6144C 27.908 25.2472 29.7385 23.3403 32.0607 22.236L 33.0064 21.7864C 34.0976 21.2676 35.2852 20.9404 36.4896 20.8211L 36.4896 21.0428C 36.4896 21.6182 36.9542 22.0845 37.5274 22.0845C 38.1005 22.0845 38.5651 21.6182 38.5651 21.0428L 38.5651 20.824C 39.7674 20.9466 40.9521 21.2763 42.0407 21.7968C 44.197 22.8283 45.951 24.5802 46.9901 26.7374L 50.1186 40.1172L 38.5651 40.1172L 38.5651 40.1173ZM 74.8406 35.3719L 63.9264 17.9446C 61.3793 13.5339 58.5149 9.89051 55.3772 7.0781C 50.1369 2.38155 44.1314 -1.78031e-07 37.5274 -1.78031e-07C 30.9233 -1.78031e-07 24.9177 2.38155 19.6775 7.0781C 16.5432 9.88745 13.6816 13.5259 11.1368 17.9299L 0.160532 35.3701C -0.145539 35.8565 -0.000943569 36.4999 0.483623 36.8073C 0.655753 36.9163 0.847394 36.9684 1.03696 36.9684C 1.38122 36.9684 1.71787 36.7966 1.91532 36.4829L 5.18801 31.283C 2.72533 38.5009 1.80269 44.1582 1.75094 44.4833C 1.70293 44.7845 1.78885 45.0917 1.98603 45.3238C 2.1832 45.5559 2.47184 45.6897 2.7757 45.6897L 12.0164 45.6897L 63.0386 45.6897L 72.2793 45.6897C 72.5831 45.6897 72.8718 45.5559 73.069 45.3238C 73.2661 45.0917 73.3521 44.7845 73.304 44.4833C 73.2526 44.1603 72.341 38.5713 69.9128 31.4179L 73.0838 36.4811C 73.2809 36.796 73.6183 36.9685 73.9634 36.9685C 74.1521 36.9685 74.3432 36.9169 74.5146 36.8087C 74.9996 36.5021 75.1457 35.859 74.8406 35.3719ZM 10.6615 23.2955C 11.3622 21.8303 12.0882 20.4413 12.8385 19.1267L 12.8926 19.0406C 12.9184 18.9997 12.9398 18.9573 12.9592 18.9144C 16.7609 12.3186 21.1928 7.64619 26.2179 4.92379C 25.5044 5.60981 24.8077 6.36542 24.1294 7.19353C 21.0899 10.9047 18.4016 16.054 16.1395 22.4984C 12.9571 31.5643 11.5097 40.731 11.1071 43.6059L 4.02198 43.6059C 4.63177 40.4968 6.56838 31.8556 10.6615 23.2955ZM 13.2047 43.6059C 14.1951 36.7575 20.0784 2.08347 37.5274 2.08347C 41.8536 2.08347 45.8188 4.24431 49.313 8.50583C 52.1972 12.0234 54.7657 16.9543 56.9471 23.1612C 59.9792 31.7883 61.4085 40.5224 61.8512 43.6059L 13.2047 43.6059ZM 64.3742 23.256C 68.4755 31.819 70.4202 40.4896 71.0325 43.606L 63.9473 43.606C 63.5448 40.7311 62.0973 31.5644 58.915 22.4986C 56.6528 16.0541 53.9646 10.9047 50.925 7.19367C 50.247 6.36583 49.5506 5.61051 48.8372 4.92463C 53.8607 7.64647 58.2915 12.3171 62.0923 18.91C 62.112 18.9537 62.1336 18.9971 62.1597 19.0389L 62.2243 19.1421C 62.9652 20.4402 63.682 21.8107 64.3742 23.256Z"/>
</defs>
</svg>
