<svg width="24" height="25" viewBox="0 0 24 25" version="1.1" xmlns="http://www.w3.org/2000/svg" xmlns:xlink="http://www.w3.org/1999/xlink">
<title>icon_duration</title>
<desc>Created using Figma</desc>
<g id="Canvas" transform="translate(-1780 -3753)">
<g id="icon_duration">
<g id="Vector">
<use xlink:href="#path0_fill" transform="translate(1782.54 3758)"/>
</g>
<g id="Vector">
<use xlink:href="#path1_fill" transform="translate(1780 3753)"/>
</g>
<g id="Vector">
<use xlink:href="#path2_fill" transform="translate(1790.04 3761.33)"/>
</g>
</g>
</g>
<defs>
<path id="path0_fill" d="M 9.16665 7.45058e-08C 4.125 7.45058e-08 -8.34465e-08 4.125 -8.34465e-08 9.16665C -8.34465e-08 11.6454 0.997558 13.9021 2.61045 15.5563C 2.62646 15.5804 2.64512 15.6034 2.6667 15.625C 2.69033 15.6486 2.71406 15.6685 2.73862 15.6854C 4.39629 17.3204 6.6688 18.3333 9.1667 18.3333C 14.2083 18.3333 18.3333 14.2083 18.3333 9.16665C 18.3333 4.125 14.2083 7.45058e-08 9.16665 7.45058e-08ZM 16.25 9.58335L 17.4895 9.58335C 17.3907 11.5644 16.5917 13.3689 15.3365 14.7532L 14.4583 13.875C 14.2917 13.7084 14.0417 13.7084 13.875 13.875C 13.7083 14.0417 13.7083 14.2917 13.875 14.4584L 14.7532 15.3366C 13.3689 16.5918 11.5643 17.3908 9.5833 17.4896L 9.5833 16.25C 9.5833 16 9.41665 15.8334 9.16665 15.8334C 8.91665 15.8334 8.75 16 8.75 16.25L 8.75 17.4895C 6.75859 17.3902 4.94551 16.5833 3.55835 15.3167L 4.41665 14.4584C 4.5833 14.2917 4.5833 14.0417 4.41665 13.875C 4.25 13.7084 4 13.7084 3.8333 13.875L 2.9772 14.7312C 1.73335 13.3498 0.94209 11.5539 0.843799 9.58335L 2.0833 9.58335C 2.29165 9.58335 2.49995 9.4167 2.49995 9.1667C 2.49995 8.9167 2.3333 8.75005 2.0833 8.75005L 0.843799 8.75005C 0.942578 6.76904 1.74155 4.9645 2.99678 3.58018L 3.87495 4.45835C 3.9583 4.5417 4.0416 4.58335 4.1666 4.58335C 4.24995 4.58335 4.37495 4.5417 4.45825 4.45835C 4.6249 4.2917 4.6249 4.0417 4.45825 3.875L 3.58008 2.99683C 4.96436 1.7416 6.76895 0.942627 8.74995 0.843848L 8.74995 2.08335C 8.74995 2.33335 8.9166 2.5 9.1666 2.5C 9.37495 2.5 9.58325 2.33335 9.58325 2.08335L 9.58325 0.843848C 11.5643 0.942627 13.3688 1.7416 14.7531 2.99683L 13.875 3.875C 13.7083 4.04165 13.7083 4.29165 13.875 4.45835C 13.9583 4.5417 14.0416 4.58335 14.1666 4.58335C 14.2916 4.58335 14.375 4.5417 14.4583 4.45835L 15.3364 3.58018C 16.5917 4.96445 17.3906 6.76904 17.4894 8.75005L 16.2499 8.75005C 15.9999 8.75005 15.8333 8.9167 15.8333 9.1667C 15.8333 9.4167 16 9.58335 16.25 9.58335Z"/>
<path id="path1_fill" d="M 22.125 7.54165C 22.4583 7.54165 22.7916 7.41665 23.0416 7.16665C 23.5416 6.66665 23.5416 5.8333 23.0416 5.3333L 21.375 3.66665C 20.875 3.16665 20.0416 3.16665 19.5416 3.66665C 19.1355 4.07271 19.0593 4.69853 19.3127 5.18721L 18.6409 5.85903C 17.164 4.62339 15.3563 3.77183 13.3749 3.4625L 13.3749 2.5L 14.1666 2.5C 14.6666 2.5 15.0416 2.125 15.0416 1.66665L 15.0416 0.875C 15.0416 0.375 14.6666 0 14.1666 0L 9.2083 0C 8.74995 0 8.37495 0.375 8.37495 0.875L 8.37495 1.625C 8.37495 2.125 8.74995 2.5 9.2083 2.5L 10.0417 2.5L 10.0417 3.4625C 8.07041 3.77022 6.271 4.6145 4.79829 5.83994L 4.11758 5.15923C 4.354 4.67485 4.27339 4.06504 3.875 3.66665C 3.375 3.16665 2.54165 3.16665 2.04165 3.66665L 0.375 5.3333C -0.125 5.8333 -0.125 6.66665 0.375 7.16665C 0.625 7.41665 0.95835 7.54165 1.29165 7.54165C 1.58755 7.54165 1.8833 7.44292 2.1209 7.2459L 2.83979 7.9648C 1.60313 9.72471 0.874951 11.8646 0.874951 14.1666C 0.874951 20.125 5.74995 25 11.7083 25C 17.6667 25 22.5417 20.125 22.5417 14.1666C 22.5417 11.8753 21.8201 9.74468 20.5939 7.9894L 21.3188 7.2645C 21.5523 7.44912 21.8386 7.54165 22.125 7.54165ZM 20.125 4.25C 20.2083 4.16665 20.3333 4.125 20.4583 4.125C 20.5833 4.125 20.7083 4.16665 20.7917 4.25L 22.4583 5.91665C 22.625 6.125 22.6667 6.41665 22.4583 6.5833C 22.25 6.74995 21.9583 6.74995 21.7917 6.5833L 21.7163 6.50796C 21.6955 6.46035 21.6652 6.41519 21.625 6.37495L 20.1666 4.9166C 20.1393 4.88931 20.1096 4.86689 20.0785 4.84854C 19.9605 4.64853 19.9757 4.39922 20.125 4.25ZM 19.8333 5.79165L 20.7083 6.66665L 20.0833 7.29165C 19.8333 6.9583 19.5417 6.66665 19.25 6.375L 19.8333 5.79165ZM 9.2083 0.83335L 14.2083 0.875L 14.2083 1.625C 14.2083 1.66665 14.2083 1.66665 14.1666 1.66665L 9.2083 1.625L 9.2083 0.83335ZM 10.875 2.5L 12.5416 2.5L 12.5416 3.36533C 12.2665 3.34414 11.9886 3.3333 11.7083 3.3333C 11.4279 3.3333 11.15 3.34414 10.8749 3.36533L 10.8749 2.5L 10.875 2.5ZM 3.5833 5.79165L 4.16665 6.375C 3.875 6.66665 3.5833 6.95835 3.3333 7.29165L 2.7083 6.66665L 3.5833 5.79165ZM 0.958301 6.58335C 0.79165 6.375 0.79165 6.08335 0.958301 5.9167L 2.62495 4.25C 2.7083 4.16665 2.8333 4.125 2.9583 4.125C 3.0833 4.125 3.2083 4.16665 3.29165 4.25C 3.4583 4.45835 3.4583 4.75 3.29165 4.91665L 1.8333 6.375L 1.62495 6.58335C 1.4583 6.75 1.12495 6.75 0.958301 6.58335ZM 11.7083 24.1667C 6.2083 24.1667 1.7083 19.6667 1.7083 14.1666C 1.7083 11.9367 2.44814 9.87129 3.69429 8.20337C 3.71284 8.19126 3.7314 8.179 3.74995 8.16665C 4.12495 7.625 4.5833 7.16665 5.0833 6.7083C 5.10029 6.69131 5.11509 6.67231 5.12861 6.65254C 6.59009 5.37031 8.4249 4.50464 10.443 4.24692C 10.4619 4.24873 10.4809 4.24995 10.5 4.24995C 11.3333 4.1666 12.0833 4.1666 12.9166 4.24995L 12.9583 4.24995C 12.9666 4.24995 12.9756 4.24922 12.9847 4.24839C 17.8878 4.88022 21.7083 9.09893 21.7083 14.1666C 21.7083 19.6667 17.2083 24.1667 11.7083 24.1667Z"/>
<path id="path2_fill" d="M 2.0833 4.21978L 2.0833 0.41665C 2.0833 0.16665 1.91665 3.63588e-07 1.66665 3.63588e-07C 1.41665 3.63588e-07 1.25 0.16665 1.25 0.41665L 1.25 4.21978C 0.533252 4.40601 2.14577e-07 5.0604 2.14577e-07 5.83335C 2.14577e-07 6.75 0.75 7.5 1.66665 7.5C 2.5833 7.5 3.3333 6.75 3.3333 5.83335C 3.3333 5.0604 2.80005 4.40601 2.0833 4.21978ZM 1.66665 6.66665C 1.2083 6.66665 0.833301 6.29165 0.833301 5.8333C 0.833301 5.37495 1.2083 4.99995 1.66665 4.99995C 2.125 4.99995 2.5 5.37495 2.5 5.8333C 2.5 6.29165 2.125 6.66665 1.66665 6.66665Z"/>
</defs>
</svg>
