<svg width="30" height="25" viewBox="0 0 30 25" version="1.1" xmlns="http://www.w3.org/2000/svg" xmlns:xlink="http://www.w3.org/1999/xlink">
<title>icon_level</title>
<desc>Created using Figma</desc>
<g id="Canvas" transform="translate(-1631 -3753)">
<g id="icon_level">
<use xlink:href="#path0_fill" transform="translate(1631 3753)"/>
</g>
</g>
<defs>
<path id="path0_fill" d="M 28.8043 23.913L 27.1739 23.913L 27.1739 1.63043C 27.1739 0.733696 26.4402 0 25.5435 0L 21.1957 0C 20.2989 0 19.5652 0.733696 19.5652 1.63043L 19.5652 23.913L 18.4783 23.913L 18.4783 9.23913C 18.4783 8.34239 17.7446 7.6087 16.8478 7.6087L 12.5 7.6087C 11.6033 7.6087 10.8696 8.34239 10.8696 9.23913L 10.8696 23.913L 9.78261 23.913L 9.78261 16.8478C 9.78261 15.9511 9.04891 15.2174 8.15217 15.2174L 3.80435 15.2174C 2.90761 15.2174 2.17391 15.9511 2.17391 16.8478L 2.17391 23.913L 0.543478 23.913C 0.244565 23.913 0 24.1576 0 24.4565C 0 24.7554 0.244565 25 0.543478 25L 28.8043 25C 29.1033 25 29.3478 24.7554 29.3478 24.4565C 29.3478 24.1576 29.1033 23.913 28.8043 23.913ZM 8.69565 23.913L 3.26087 23.913L 3.26087 16.8478C 3.26087 16.5489 3.50543 16.3043 3.80435 16.3043L 8.15217 16.3043C 8.45109 16.3043 8.69565 16.5489 8.69565 16.8478L 8.69565 23.913ZM 17.3913 23.913L 11.9565 23.913L 11.9565 9.23913C 11.9565 8.94022 12.2011 8.69565 12.5 8.69565L 16.8478 8.69565C 17.1467 8.69565 17.3913 8.94022 17.3913 9.23913L 17.3913 23.913ZM 26.087 23.913L 20.6522 23.913L 20.6522 1.63043C 20.6522 1.33152 20.8967 1.08696 21.1957 1.08696L 25.5435 1.08696C 25.8424 1.08696 26.087 1.33152 26.087 1.63043L 26.087 23.913Z"/>
</defs>
</svg>
