<svg width="30" height="25" viewBox="0 0 30 25" version="1.1" xmlns="http://www.w3.org/2000/svg" xmlns:xlink="http://www.w3.org/1999/xlink">
<title>icon_people</title>
<desc>Created using Figma</desc>
<g id="Canvas" transform="translate(-1481 -3753)">
<g id="icon_people">
<g id="Vector">
<use xlink:href="#path0_fill" transform="translate(1490.5 3754.28)"/>
</g>
<g id="Vector">
<use xlink:href="#path1_fill" transform="translate(1486.5 3765.53)"/>
</g>
<g id="Vector">
<use xlink:href="#path2_fill" transform="translate(1500.26 3762.86)"/>
</g>
<g id="Vector">
<use xlink:href="#path3_fill" transform="translate(1484.44 3753)"/>
</g>
<g id="Vector">
<use xlink:href="#path4_fill" transform="translate(1481 3762.86)"/>
</g>
<g id="Vector">
<use xlink:href="#path5_fill" transform="translate(1485.34 3772.3)"/>
</g>
<g id="Vector">
<use xlink:href="#path6_fill" transform="translate(1486.24 3772.58)"/>
</g>
<g id="Vector">
<use xlink:href="#path7_fill" transform="translate(1499.22 3753)"/>
</g>
</g>
</g>
<defs>
<path id="path0_fill" d="M -2.52469e-07 5.41324C -2.52469e-07 6.87918 0.57315 8.57106 1.53312 9.93916C 2.62295 11.4922 4.00096 12.3475 5.41331 12.3475C 6.82559 12.3475 8.2036 11.4922 9.29343 9.93909C 10.2534 8.57105 10.8266 6.87912 10.8266 5.41324C 10.8266 2.42835 8.3982 2.67771e-08 5.41331 2.67771e-08C 2.42841 2.67771e-08 -2.52469e-07 2.42835 -2.52469e-07 5.41324ZM 5.41331 0.940104C 7.87976 0.940104 9.88645 2.94679 9.88645 5.41324C 9.88645 6.67411 9.36438 8.20141 8.52392 9.39916C 7.62832 10.6754 6.49455 11.4074 5.41331 11.4074C 4.33206 11.4074 3.1983 10.6754 2.30269 9.39916C 1.46224 8.20147 0.940104 6.67417 0.940104 5.41324C 0.940104 2.94673 2.94679 0.940104 5.41331 0.940104Z"/>
<path id="path1_fill" d="M 13.4466 0.0456504C 13.2673 -0.0397738 13.0535 -0.00310978 12.9126 0.137216C 11.8613 1.18562 10.6491 1.73972 9.40699 1.73972C 8.16474 1.73972 6.95282 1.18562 5.9021 0.137342C 5.76133 -0.00310984 5.54743 -0.0397738 5.36806 0.0456504C 3.7853 0.799112 2.44571 1.97781 1.49414 3.45434C 0.516681 4.97104 -8.79817e-08 6.73073 -8.79817e-08 8.54313L -8.79817e-08 8.55071C -8.79817e-08 8.68333 0.05603 8.8098 0.15424 8.89892C 2.69202 11.2004 5.978 12.4679 9.40693 12.4679C 12.8359 12.4679 16.1218 11.2004 18.6596 8.89892C 18.7578 8.8098 18.8139 8.68339 18.8139 8.55071L 18.8139 8.54313C 18.8139 6.73073 18.2973 4.97104 17.3201 3.4544C 16.3688 1.97775 15.0293 0.79905 13.4466 0.0456504ZM 9.40706 11.5278C 6.28209 11.5278 3.28479 10.3982 0.942548 8.34226C 0.979087 6.78194 1.44118 5.27213 2.28445 3.96356C 3.08298 2.72451 4.18484 1.71841 5.48444 1.03821C 6.65932 2.1135 8.00925 2.67982 9.40706 2.67982C 10.8047 2.67982 12.1548 2.11357 13.3303 1.03821C 14.6298 1.71841 15.7315 2.72451 16.53 3.96356C 17.3731 5.272 17.835 6.78187 17.8716 8.34226C 15.5293 10.3982 12.532 11.5278 9.40706 11.5278Z"/>
<path id="path2_fill" d="M 9.2612 3.01632C 8.43203 1.7295 7.26467 0.702218 5.88535 0.0456497C 5.70598 -0.0397744 5.49207 -0.00311043 5.35137 0.137216C 4.45439 1.03163 3.42165 1.50444 2.36473 1.50444C 1.79176 1.50444 1.22507 1.36625 0.680496 1.09374C 0.448228 0.977607 0.166009 1.07162 0.0498125 1.30376C -0.0663843 1.53597 0.0276269 1.81831 0.259833 1.93444C 0.936269 2.27294 1.64448 2.44455 2.36479 2.44455C 3.57658 2.44455 4.74664 1.95964 5.76721 1.03834C 6.86425 1.62108 7.79458 2.47569 8.47101 3.52554C 9.18831 4.63881 9.58385 5.92237 9.62032 7.24935C 8.45936 8.26203 7.07872 9.03236 5.61485 9.48267C 5.36673 9.559 5.22741 9.82204 5.30374 10.0702C 5.36591 10.2723 5.55193 10.4022 5.75286 10.4022C 5.79861 10.4022 5.84524 10.3954 5.89124 10.3813C 7.55266 9.87024 9.11486 8.97977 10.4089 7.80615C 10.5072 7.71702 10.5632 7.59061 10.5632 7.45793L 10.5632 7.45135C 10.5631 5.87173 10.1129 4.3381 9.2612 3.01632Z"/>
<path id="path3_fill" d="M 4.73349 10.7794C 5.23049 10.7794 5.7263 10.6582 6.20732 10.4192C 6.43978 10.3037 6.5346 10.0215 6.41909 9.78905C 6.30359 9.55653 6.02143 9.46177 5.78897 9.57728C 5.43913 9.75114 5.08402 9.83925 4.73349 9.83925C 3.82215 9.83925 2.86356 9.21791 2.10345 8.13453C 1.3859 7.11182 0.940104 5.80859 0.940104 4.73349C 0.940104 2.64175 2.64182 0.940041 4.73349 0.940041C 5.72072 0.940041 6.65569 1.31746 7.36615 2.00286C 7.55292 2.18305 7.85056 2.17785 8.03075 1.99095C 8.21099 1.80412 8.20567 1.50655 8.01884 1.32636C 7.13226 0.471055 5.96546 -2.86897e-08 4.73349 -2.86897e-08C 2.12338 -2.86897e-08 -5.9292e-08 2.12344 -5.9292e-08 4.73355C -5.9292e-08 6.01084 0.498694 7.48411 1.33388 8.67453C 2.28621 10.0319 3.49355 10.7794 4.73349 10.7794Z"/>
<path id="path4_fill" d="M 3.82522 9.0489C 2.77525 8.59627 1.80657 7.9852 0.942924 7.23111C 0.9794 5.90795 1.37381 4.62828 2.08929 3.51814C 2.76372 2.47162 3.69129 1.61951 4.78488 1.0384C 5.80264 1.95732 6.96943 2.44078 8.17797 2.44078C 8.90416 2.44078 9.61752 2.26624 10.2982 1.92203C 10.5298 1.80483 10.6226 1.52211 10.5055 1.29041C 10.3883 1.0587 10.1056 0.965946 9.87385 1.08308C 9.32596 1.36016 8.75538 1.50068 8.17797 1.50068C 7.12436 1.50068 6.09482 1.02925 5.20072 0.137276C 5.05995 -0.00311333 4.84611 -0.0397768 4.66668 0.0456473C 3.29074 0.700649 2.12626 1.7253 1.29904 3.00886C 0.449182 4.32757 0 5.85743 0 7.43311L 0 7.43957C 0 7.57218 0.0560302 7.69866 0.15424 7.78778C 1.13377 8.67612 2.24365 9.39091 3.453 9.91223C 3.51367 9.93836 3.57678 9.95077 3.63889 9.95077C 3.8209 9.95077 3.99413 9.84441 4.07078 9.66667C 4.1735 9.42826 4.06357 9.15168 3.82522 9.0489Z"/>
<path id="path5_fill" d="M 0.0358947 0.284218C -0.131506 0.688024 0.319932 1.08845 0.701301 0.872537C 0.904238 0.757594 0.994801 0.500443 0.903548 0.284345C 0.752693 -0.100785 0.190448 -0.0886895 0.0358947 0.284218Z"/>
<path id="path6_fill" d="M 0.00319151 0.00838949C 0.0150995 0.0365926 -0.00808974 -0.0204404 0.00319151 0.00838949L 0.00319151 0.00838949Z"/>
<path id="path7_fill" d="M 0.79643 2.00286C 1.5069 1.31746 2.44186 0.940041 3.4291 0.940041C 5.52077 0.940041 7.22248 2.64176 7.22248 4.73349C 7.22248 5.80859 6.77675 7.11176 6.05907 8.13453C 5.29896 9.21791 4.34031 9.83925 3.42904 9.83925C 3.0785 9.83925 2.72339 9.75113 2.37355 9.57728C 2.14097 9.46171 1.85887 9.55653 1.74337 9.78905C 1.62786 10.0215 1.72268 10.3036 1.95514 10.4192C 2.43616 10.6582 2.93203 10.7794 3.42904 10.7794C 4.66891 10.7794 5.87631 10.0319 6.82864 8.67453C 7.66389 7.48411 8.16252 6.01084 8.16252 4.73355C 8.16252 2.12344 6.03908 -6.31173e-08 3.42904 -6.31173e-08C 2.19706 -6.31173e-08 1.03033 0.471055 0.143684 1.32636C -0.0431459 1.50655 -0.0484733 1.80419 0.131776 1.99095C 0.3119 2.17778 0.609538 2.18311 0.79643 2.00286Z"/>
</defs>
</svg>
