<svg width="81" height="75" viewBox="0 0 81 75" version="1.1" xmlns="http://www.w3.org/2000/svg" xmlns:xlink="http://www.w3.org/1999/xlink">
<title>icon</title>
<desc>Created using Figma</desc>
<g id="Canvas" transform="translate(-327 -2572)">
<g id="icon">
<use xlink:href="#path0_fill" transform="translate(327 2572)" fill="#0A0A0A"/>
</g>
</g>
<defs>
<path id="path0_fill" d="M 75.8449 22.5391C 73.4432 18.8945 70.8993 17.1432 69.9197 16.5752C 69.6195 16.0703 69.3035 15.5812 68.9716 15.092C 69.7933 13.5932 69.5721 11.6683 68.308 10.4061L 64.3578 6.46164C 63.6152 5.72009 62.6198 5.30987 61.5611 5.30987C 60.8817 5.30987 60.2338 5.48343 59.6492 5.79898C 56.9631 4.00032 54.04 2.58033 50.943 1.60211C 50.2004 1.36544 49.4104 1.77566 49.1734 2.51722C 48.9363 3.25877 49.3472 4.04765 50.0898 4.28432C 52.6969 5.10476 55.1776 6.27231 57.4687 7.73964L 46.582 18.6105C 46.5662 18.6263 46.5504 18.642 46.5346 18.6578C 42.6951 17.1747 38.4605 17.1747 34.6209 18.6578C 34.6051 18.642 34.5893 18.6263 34.5735 18.6105L 23.75 7.72386C 30.0071 3.71632 37.465 2.07544 44.923 3.10099C 45.6972 3.21144 46.3924 2.67499 46.503 1.90189C 46.6136 1.12878 46.0764 0.434559 45.3022 0.324115C 36.912 -0.827657 28.5376 1.113 21.5853 5.7832C 21.0007 5.46765 20.3529 5.29409 19.6734 5.29409C 18.6148 5.29409 17.6351 5.70431 16.8767 6.44587L 12.9265 10.3903C 12.1839 11.1318 11.7731 12.1258 11.7731 13.1829C 11.7731 13.8614 11.9469 14.5083 12.2629 15.092C 11.9627 15.5338 11.6783 15.9914 11.3939 16.4332L 11.3623 16.3543C 11.2201 16.4174 8.01252 18.0109 5.04198 22.5391C 0.222768 29.8915 -0.298655 39.3582 0.112163 46.0164C 0.27017 48.6197 1.32882 50.7654 3.1775 52.2486C 5.04198 53.7317 7.6491 54.5205 10.6196 54.5048C 11.0146 54.5048 11.4255 54.489 11.8363 54.4574C 11.6625 55.6408 12.0417 56.8872 12.9423 57.8023L 16.8925 61.7467C 17.6351 62.4883 18.6306 62.8985 19.6892 62.8985C 20.3687 62.8985 21.0165 62.7249 21.6011 62.4094C 21.6485 62.4409 21.6959 62.4725 21.7433 62.5041C 23.1338 65.9436 27.9846 75 40.641 75C 53.2973 75 58.1482 65.9436 59.5386 62.5041C 59.586 62.4725 59.6334 62.4409 59.6808 62.4094C 60.2654 62.7249 60.9133 62.8985 61.5927 62.8985C 62.6514 62.8985 63.631 62.4883 64.3894 61.7467L 68.3396 57.8023C 69.2402 56.903 69.6195 55.6565 69.4615 54.489C 69.7459 54.5048 70.0303 54.5048 70.3147 54.5048C 73.2694 54.5048 75.8923 53.7159 77.7568 52.2328C 79.6055 50.7654 80.6642 48.6039 80.8222 46.0006C 81.2014 39.3582 80.68 29.8915 75.8449 22.5391ZM 48.6203 20.5669L 60.7711 8.43386C 60.9923 8.21297 61.2767 8.10252 61.5769 8.10252C 61.8771 8.10252 62.1615 8.22875 62.3827 8.43386L 66.3329 12.3783C 66.7753 12.8201 66.7753 13.5458 66.3329 13.9876L 54.1822 26.1207C 53.961 26.3416 53.6766 26.452 53.3763 26.452C 53.0761 26.452 52.7917 26.3258 52.5705 26.1207L 48.6203 22.1762C 48.3991 21.9554 48.2885 21.6714 48.2885 21.3716C 48.2885 21.0718 48.3991 20.7878 48.6203 20.5669ZM 45.476 21.2138C 45.476 21.2611 45.476 21.3085 45.476 21.3716C 45.476 22.4287 45.8868 23.4069 46.6294 24.1642L 50.5796 28.1087C 51.3223 28.8502 52.3177 29.2604 53.3763 29.2604C 53.4237 29.2604 53.4869 29.2604 53.5343 29.2604C 54.7194 32.3844 54.7194 35.824 53.5343 38.9479C 53.4869 38.9479 53.4395 38.9479 53.3763 38.9479C 52.3177 38.9479 51.3381 39.3582 50.5796 40.0997L 46.6294 44.0441C 45.8868 44.7857 45.476 45.7797 45.476 46.8368C 45.476 46.8841 45.476 46.9315 45.476 46.9946C 42.3474 48.1779 38.9029 48.1779 35.7744 46.9946C 35.8218 45.9375 35.4425 44.8646 34.6209 44.0599L 30.6707 40.1155C 29.9281 39.3739 28.9326 38.9637 27.874 38.9637C 27.8266 38.9637 27.7792 38.9637 27.716 38.9637C 26.5309 35.8397 26.5309 32.4002 27.716 29.2762C 27.7634 29.2762 27.8108 29.2762 27.874 29.2762C 28.9326 29.2762 29.9123 28.866 30.6707 28.1244L 34.6209 24.18C 35.4267 23.3753 35.806 22.3025 35.7744 21.2454C 38.9187 20.0462 42.3474 20.0462 45.476 21.2138ZM 14.2222 50.9548C 10.9988 45.9375 9.29237 40.1313 9.29237 34.1042C 9.29237 28.0613 10.9988 22.2709 14.2222 17.2536L 25.1089 28.1244C 25.1247 28.1402 25.1405 28.156 25.1563 28.1718C 23.671 32.0057 23.671 36.2342 25.1563 40.0682C 25.1405 40.0839 25.1247 40.0997 25.1089 40.1155L 14.2222 50.9548ZM 14.9332 12.3783L 18.8834 8.43386C 19.1046 8.21297 19.389 8.10252 19.6892 8.10252C 19.9895 8.10252 20.2739 8.22875 20.4951 8.43386L 32.6458 20.5669C 33.0882 21.0087 33.0882 21.7345 32.6458 22.1762L 28.6956 26.1207C 28.4744 26.3416 28.19 26.452 27.8898 26.452C 27.5896 26.452 27.3052 26.3258 27.084 26.1207L 14.9332 13.9876C 14.712 13.7667 14.6014 13.4827 14.6014 13.1829C 14.6014 12.8674 14.712 12.5834 14.9332 12.3783ZM 4.93138 50.0554C 3.69892 49.0772 3.01949 47.6572 2.90889 45.8428C 2.52967 39.6895 2.97209 30.9644 7.26988 24.2589C 7.6649 23.6436 8.05992 23.0913 8.45494 22.6022C 7.15928 26.2469 6.47985 30.1282 6.47985 34.0884C 6.47985 40.3522 8.15472 46.3792 11.3623 51.6648C 8.75515 51.8068 6.41664 51.2388 4.93138 50.0554ZM 19.6892 60.0901C 19.389 60.0901 19.1046 59.9638 18.8834 59.7587L 14.9332 55.8143C 14.4908 55.3725 14.4908 54.6468 14.9332 54.205L 27.084 42.0719C 27.3052 41.851 27.5896 41.7406 27.8898 41.7406C 28.19 41.7406 28.4744 41.8668 28.6956 42.0719L 32.6458 46.0164C 33.0882 46.4581 33.0882 47.1839 32.6458 47.6257L 30.4653 49.803C 29.9123 50.3552 29.9123 51.2388 30.4653 51.791C 31.0183 52.3432 31.9032 52.3432 32.4562 51.791L 34.6367 49.6137C 34.6525 49.5979 34.6683 49.5821 34.6841 49.5663C 36.596 50.3079 38.6185 50.6708 40.641 50.6708C 42.6635 50.6708 44.6702 50.2921 46.5978 49.5663C 46.6136 49.5821 46.6294 49.5979 46.6452 49.6137L 57.5319 60.4845C 52.5073 63.7032 46.6926 65.4072 40.6568 65.4072C 34.6051 65.4072 28.8062 63.7032 23.7816 60.4845L 29.5805 54.6941C 30.1335 54.1419 30.1335 53.2583 29.5805 52.7061C 29.0275 52.1539 28.1426 52.1539 27.5896 52.7061L 20.5109 59.7745C 20.2739 59.9796 19.9895 60.0901 19.6892 60.0901ZM 40.6252 72.1916C 32.946 72.1916 28.6166 68.3576 26.2939 65.06C 30.7497 67.1269 35.6163 68.1998 40.6252 68.1998C 45.634 68.1998 50.5006 67.1269 54.9564 65.06C 52.6495 68.3576 48.3043 72.1916 40.6252 72.1916ZM 66.3329 55.8143L 62.3827 59.7587C 62.1615 59.9796 61.8771 60.0901 61.5769 60.0901C 61.2767 60.0901 60.9923 59.9638 60.7711 59.7587L 48.6203 47.6257C 48.3991 47.4048 48.2885 47.1208 48.2885 46.821C 48.2885 46.5212 48.4149 46.2372 48.6203 46.0164L 52.5705 42.0719C 52.7917 41.851 53.0761 41.7406 53.3763 41.7406C 53.6766 41.7406 53.961 41.8668 54.1822 42.0719L 66.3329 54.205C 66.7753 54.6468 66.7753 55.3725 66.3329 55.8143ZM 77.978 45.8428C 77.8674 47.6572 77.188 49.0772 75.9556 50.0554C 74.5335 51.1914 72.353 51.7594 69.8881 51.6963C 71.3259 49.3139 72.4794 46.7579 73.2852 44.0757C 73.5064 43.3341 73.0956 42.5453 72.353 42.3244C 71.6104 42.1035 70.8203 42.5137 70.5991 43.2553C 69.7617 45.9848 68.5766 48.5723 67.0282 50.9548L 56.1415 40.0839C 56.1257 40.0682 56.1099 40.0524 56.0941 40.0366C 57.5793 36.2026 57.5793 31.9742 56.0941 28.1402C 56.1099 28.1244 56.1257 28.1087 56.1415 28.0929L 67.0282 17.222C 71.1047 23.5489 72.7322 31.0906 71.6262 38.6324C 71.5155 39.4055 72.0528 40.1155 72.8112 40.2259C 72.8744 40.2417 72.9534 40.2417 73.0166 40.2417C 73.6961 40.2417 74.2965 39.7368 74.4071 39.0426C 75.1813 33.7413 74.7231 28.4242 73.0956 23.47C 73.2694 23.7067 73.4432 23.9749 73.617 24.2273C 77.9148 30.9486 78.3731 39.6895 77.978 45.8428Z"/>
</defs>
</svg>
