<svg width="150" height="188" viewBox="0 0 150 188" version="1.1" xmlns="http://www.w3.org/2000/svg" xmlns:xlink="http://www.w3.org/1999/xlink">
<title>logotype </title>
<desc>Created using Figma</desc>
<g id="Canvas" transform="translate(-135 -1045)">
<g id="logotype ">
<g id="Vector">
<use xlink:href="#path0_fill" transform="translate(135 1045.22)" fill="#FFFFFF"/>
</g>
<g id="Vector">
<use xlink:href="#path1_fill" transform="translate(165.222 1045.89)" fill="#FFFFFF"/>
</g>
<g id="Vector">
<use xlink:href="#path2_fill" transform="translate(187.222 1045.89)" fill="#FFFFFF"/>
</g>
<g id="Vector">
<use xlink:href="#path3_fill" transform="translate(212.111 1045.89)" fill="#FFFFFF"/>
</g>
<g id="Vector">
<use xlink:href="#path4_fill" transform="translate(233.444 1045)" fill="#FFFFFF"/>
</g>
<g id="Vector">
<use xlink:href="#path5_fill" transform="translate(269.667 1046.33)" fill="#FFFFFF"/>
</g>
<g id="Vector">
<use xlink:href="#path6_fill" transform="translate(135 1126.21)" fill="#FFFFFF"/>
</g>
<g id="Vector">
<use xlink:href="#path7_fill" transform="translate(168.778 1124.43)" fill="#FFFFFF"/>
</g>
<g id="Vector">
<use xlink:href="#path8_fill" transform="translate(216.333 1123.54)" fill="#FFFFFF"/>
</g>
<g id="Vector">
<use xlink:href="#path9_fill" transform="translate(260.778 1124.65)" fill="#FFFFFF"/>
</g>
</g>
</g>
<defs>
<path id="path0_fill" d="M 18.8889 60.071C 18.2222 59.626 18 58.9585 18 57.8461C 18 56.0662 17.7778 52.9514 17.1111 48.7242L 16.6667 46.9443L 7.77778 45.6094C 7.33333 46.9443 6.88889 49.8367 6.22222 53.8414C 5.77778 56.7337 5.33333 58.7361 4.44444 59.626C 4 60.071 3.33333 60.5159 2.66667 60.5159C 2 60.5159 1.33333 60.2934 0.666667 59.8485C 0.222222 59.181 0 58.5136 0 57.8461L 0.222222 57.4011L 0.222222 56.9562C 4.22222 41.6047 7.11111 26.6982 9.11111 11.7917C 9.11111 11.5692 9.11111 11.1243 9.11111 10.6793C 9.11111 10.2343 9.33333 9.34437 9.33333 8.23195C 9.55556 6.0071 9.77778 4.22722 10 2.89231C 10.2222 1.5574 10.4444 0.667455 11.1111 1.32611e-08L 14.2222 1.32611e-08C 15.1111 1.32611e-08 15.7778 0.222485 16.4444 0.667455C 17.1111 1.11243 17.3333 1.5574 17.3333 2.22485C 17.3333 6.67455 18 13.3491 19.1111 22.2485C 20.2222 31.3704 20.8889 37.8225 20.8889 41.3822C 20.8889 41.8272 21.1111 42.7171 21.3333 44.052C 21.5556 45.387 21.7778 46.2769 21.7778 46.7219C 21.7778 47.1668 22 48.9467 22.6667 52.0615C 23.1111 54.9538 23.5556 56.7337 23.5556 57.6236C 23.5556 58.9585 23.1111 59.8485 22.2222 60.071C 20.4444 60.5159 19.5556 60.2934 18.8889 60.071ZM 15.7778 40.2698C 15.7778 34.9302 15.3333 28.0331 14.4444 19.8012L 13.3333 10.4568C 10.8889 24.4734 9.11111 34.9302 8 42.0497C 8.88889 42.7171 11.5556 43.1621 15.7778 43.3846C 15.7778 42.7171 15.7778 41.6047 15.7778 40.2698Z"/>
<path id="path1_fill" d="M 9.33333 59.8485C 7.77778 59.4035 6.66666 58.9585 6 58.5136C 2 56.0662 8.4771e-07 48.9467 8.4771e-07 37.6L 8.4771e-07 35.1526L 8.4771e-07 32.4828L 8.4771e-07 30.258C 8.4771e-07 27.8106 8.4771e-07 25.8083 8.4771e-07 23.8059C 8.4771e-07 21.8035 0.222223 19.8012 0.444445 17.7988C 0.666667 15.574 0.888888 13.5716 1.33333 12.2367C 1.77778 10.9018 2.22222 9.12189 3.11111 7.34201C 3.77778 5.56213 4.66667 4.22722 5.77778 3.33728C 6.88889 2.44734 8.22222 1.5574 9.77778 0.88994C 11.3333 0.222485 13.1111 -2.65223e-08 15.3333 -2.65223e-08C 16.2222 -2.65223e-08 16.8889 0.222485 17.3333 0.667455C 17.7778 1.11243 18 1.5574 18 2.22485C 18 2.89231 17.7778 3.33728 17.3333 3.78225C 16.8889 4.22722 16.4444 4.4497 16 4.67219L 12 4.67219C 10.8889 4.67219 9.77778 5.33964 8.88889 6.89704C 8 8.45443 7.33333 10.2343 7.11111 12.6816C 6.44444 17.1313 6 20.6911 6 23.3609L 6 23.8059L 5.77778 32.2603C 5.55556 34.7077 5.33333 37.6 5.33333 40.7148C 5.33333 42.9396 5.33333 44.7195 5.55556 46.2769C 5.77778 48.5017 6.44444 50.2816 7.11111 51.6165C 7.77778 53.1739 9.11111 54.2864 10.6667 55.1763C 11.5556 55.6213 12.4444 55.6213 13.5556 55.6213C 14.2222 55.6213 14.8889 55.3988 15.5556 54.9538C 16.2222 54.9538 16.8889 55.1763 17.5556 55.3988C 18.2222 55.6213 18.2222 56.2887 18.2222 56.9562C 18.2222 59.181 16.6667 60.5159 13.3333 60.5159C 12.2222 60.2934 10.8889 60.2934 9.33333 59.8485Z"/>
<path id="path2_fill" d="M 10.2222 57.6236L 10.2222 54.0639C 10.2222 52.9514 10.2222 51.839 10.2222 50.7266L 10.2222 47.6118C 10 46.9443 9.55556 40.4923 8.88889 28.0331C 8.22222 15.574 7.77778 8.00946 7.55555 4.67219C 4.22222 4.4497 2 4.22722 0.888888 3.55976C 0.222221 3.11479 0 2.44734 0 2.00237C 0 1.5574 0.222221 1.11243 0.888888 0.667455C 1.55555 0.222485 2.22222 -2.65223e-08 2.88889 -2.65223e-08C 4.44444 -2.65223e-08 6.66667 0.222485 8.88889 0.44497C 11.1111 0.667455 13.1111 0.88994 14.8889 0.88994L 15.5556 0.88994L 16.2222 0.88994C 18 0.88994 18.8889 1.5574 18.8889 3.11479C 18.8889 3.78225 18.6667 4.4497 18 4.89467C 17.3333 5.33964 16.6667 5.56213 16 5.56213C 15.5556 5.56213 14.6667 5.56213 13.7778 5.33964L 12.2222 4.67219L 12.2222 5.11716L 12.2222 5.56213C 12.2222 10.9018 12.6667 19.3562 13.7778 30.9254C 14.6667 41.8272 15.1111 50.2816 15.1111 56.2887C 15.1111 56.9562 14.8889 57.6236 14.2222 58.0686C 13.5556 58.5136 12.8889 58.9585 12.2222 58.9585L 10.2222 57.6236Z"/>
<path id="path3_fill" d="M 0.666667 56.2887C 0.666667 54.9538 1.55556 54.0639 3.33333 54.0639L 4.22222 54.0639L 5.11111 54.0639C 5.55556 54.0639 6 53.8414 6 53.6189C 6.22223 53.3964 6.22222 52.729 6.22222 52.0615C 6.22222 50.9491 6.22223 49.3917 6 47.3893C 5.77778 46.0544 5.55555 43.3846 5.33333 39.8248C 4.88889 30.7029 4.44445 23.8059 4.44445 19.3562C 4.44445 17.7988 4.44445 16.2414 4.44445 14.9065L 4.44445 10.4568C 4.44445 8.45443 4.44444 6.89704 4.22222 5.56213C 3.33333 5.78461 2.66667 6.0071 2.22222 6.0071C 0.88889 6.0071 1.69542e-06 5.33964 1.69542e-06 3.78225C 1.69542e-06 3.11479 0.444443 2.44734 1.33333 2.00237C 2.88889 1.11243 4 0.88994 5.55556 0.667455C 8 0.222485 10 -2.65223e-08 11.7778 -2.65223e-08C 12.4444 -2.65223e-08 13.1111 0.222485 13.5556 0.667455C 14 1.11243 14.2222 1.77988 14.2222 2.44734C 14.2222 3.11479 14 3.55976 13.5556 4.22722C 13.1111 4.67219 12.6667 4.89467 12 4.89467C 11.5556 4.89467 11.3333 4.89467 11.1111 4.89467L 10.4444 4.89467C 9.77778 4.89467 9.33333 5.11716 9.11111 5.33964C 8.88889 5.56213 8.66666 6.0071 8.66666 6.89704C 8.66666 12.6816 9.11111 21.3586 9.77777 32.9278C 10 35.1526 10.2222 38.2674 10.4444 42.2722C 10.6667 44.942 10.8889 47.8343 10.8889 50.7266L 10.8889 54.0639C 11.3333 54.0639 11.7778 54.0639 12.6667 54.0639C 15.1111 54.0639 16.4444 55.1763 16.4444 57.1787L 16.4444 57.6236L 14.2222 59.181C 14.2222 59.181 14 59.181 13.5556 59.181C 13.3333 59.181 12.6667 59.181 11.7778 59.181C 9.77778 59.4035 8.66667 59.4035 8.22223 59.4035C 3.33334 58.9585 0.666667 58.0686 0.666667 56.2887Z"/>
<path id="path4_fill" d="M 10.4444 59.8485C 10.4444 52.9515 9.77777 46.0544 8.44444 38.7124C 7.11111 31.3704 5.11111 22.471 2.44445 12.0142C 2.22223 11.3467 2 10.4568 1.55556 9.34437C 0.444444 6.0071 -1.69542e-06 4.00473 -1.69542e-06 3.11479C -1.69542e-06 2.66982 0.222219 2.00237 0.666663 1.77988C 1.11111 1.33491 1.55555 1.11243 2.22222 1.11243C 3.11111 1.11243 4 1.77988 4.66667 3.33728C 5.33334 4.67219 6.22223 6.67455 6.88889 9.12189C 7.55556 11.5692 8.22222 14.4615 9.11111 18.0213C 9.77778 21.3586 10.6667 26.6982 11.7778 33.5952L 12.2222 37.155L 13.3333 45.1645C 13.5556 47.3893 13.7778 48.9467 14 49.8367C 15.3333 43.3846 16.8889 33.8177 18.8889 21.5811C 20.4444 11.1243 21.5556 3.78225 22.2222 2.65223e-08L 24.2222 2.65223e-08C 24.6667 2.65223e-08 25.3333 0.222485 25.5556 0.667455C 25.7778 0.222485 26 0.667455 26 1.33491C 26 3.55976 25.7778 5.78461 25.3333 8.23195C 24.8889 10.6793 24 13.5716 23.1111 17.1314C 22.2222 20.0237 21.7778 22.2485 21.5556 23.8059C 21.3333 25.3633 21.1111 27.5882 20.8889 30.9254C 20.4444 38.0449 19.7778 44.497 18.6667 50.2816C 18 53.6189 17.1111 56.5112 16 58.2911C 14.8889 60.2935 13.7778 61.1834 12.4444 61.1834L 10.4444 59.8485Z"/>
<path id="path5_fill" d="M 1.55555 58.9585C 0.888887 58.5136 0.666665 57.8461 0.444443 56.9562L 0.444443 54.7313L 0.444443 52.9514C 0.444443 52.5065 0.444443 51.839 0.444443 51.1716C 0.444443 49.8367 0.444446 48.0568 0.222224 45.387L -3.39084e-06 39.6023C -3.39084e-06 36.71 1.6888e-06 32.2603 0.222224 26.6982C 0.444446 21.5811 0.66667 17.1313 0.66667 13.7941C 0.66667 12.9041 0.666665 11.7917 0.444443 10.0118C 0.222221 8.23195 0.222224 7.11952 0.222224 6.22958C 0.222224 2.00237 1.55556 -5.30446e-08 4 -5.30446e-08C 6 -5.30446e-08 8.22222 0.44497 10.8889 1.11243C 13.5556 1.77988 14.6667 2.89231 14.6667 3.78225C 14.6667 4.4497 14.4444 4.89467 14 5.33964C 13.5556 5.78461 12.8889 6.22958 12.2222 6.45207C 9.77777 5.56213 7.55555 4.89467 5.55555 4.67219C 5.55555 5.56213 5.55555 6.89704 5.55555 8.45443C 5.55555 10.9018 5.55555 12.9041 5.55555 14.9065C 5.33333 17.7988 5.33333 19.8012 5.33333 21.3586L 5.55555 22.6935L 6.88889 22.6935C 7.33333 22.6935 8 22.6935 8.66667 22.6935C 11.5556 22.6935 12.8889 23.5834 12.8889 25.1408C 12.8889 25.8083 12.6667 26.2532 12 26.6982C 11.5556 27.1432 10.8889 27.3657 10 27.3657C 8.88888 27.3657 8 27.3657 7.55555 27.1432L 5.33333 27.1432C 5.55556 28.7006 5.55555 30.9254 5.55555 33.8177C 5.55555 36.71 5.55555 39.3799 5.55555 41.8272C 5.33333 45.387 5.33333 48.0568 5.33333 49.8367C 5.33333 53.1739 5.33333 54.7313 5.55555 54.7313L 8.44445 54.7313C 9.55556 54.7313 10.6667 54.7313 12 54.7313C 14.2222 54.7313 15.3333 55.3988 15.3333 56.9562C 15.3333 57.8461 14.8889 58.5136 14.2222 58.9585C 13.5556 59.4035 12.6667 59.626 11.5556 59.626L 4 59.626C 2.88889 59.8485 2.22222 59.626 1.55555 58.9585Z"/>
<path id="path6_fill" d="M 0 103.011C 0.222222 102.343 0.222222 100.563 0.222222 97.6709C 0.222222 87.8816 0.444444 73.1976 0.666667 53.8414C 1.11111 34.4852 1.33333 20.4686 1.33333 11.7917L 1.55556 6.0071L 2 1.11242C 2 0.444968 2.44444 -1.69743e-06 3.11111 -1.69743e-06C 3.55556 -1.69743e-06 4.44444 0.222485 5.33333 0.44497L 5.77778 0.667452C 5.77778 3.11479 5.77778 5.11716 5.55556 7.11952L 5.55556 13.3491L 5.55556 30.9254C 5.55556 36.0426 5.77778 41.8272 5.77778 48.5017C 5.77778 48.9467 5.55556 50.2816 5.55556 52.0615L 5.33333 55.3988C 5.33333 57.6236 5.11111 59.8485 5.11111 62.0733C 5.11111 64.5207 5.11111 66.7455 5.33333 68.7479L 5.55556 75.6449L 5.11111 76.9798L 5.33333 76.7574C 5.33333 76.9798 5.33333 77.2023 5.11111 77.4248L 5.11111 78.0923C 5.11111 78.9822 5.33333 79.6497 5.55556 80.3171L 5.11111 95.6686L 5.11111 96.5585C 5.11111 98.3384 5.11111 99.4508 5.33333 99.6733C 5.33333 100.118 5.55555 100.563 6.22222 100.563L 14.6667 100.786C 17.1111 100.786 18.8889 100.786 19.7778 100.786C 20.6667 100.786 21.3333 100.786 21.5556 100.786L 22 100.786C 22.4444 100.786 23.1111 101.008 23.5556 101.676C 24 102.343 24.4444 102.788 24.4444 103.456C 24.4444 104.79 23.5556 105.458 21.7778 105.458C 20 105.458 15.5556 105.235 8.44444 105.235L 8.66667 105.458C 7.55556 105.458 6.66667 105.458 5.55556 105.68C 4.66667 105.903 3.77778 105.903 2.66667 105.903C 1.33333 106.57 0.222222 105.458 0 103.011Z"/>
<path id="path7_fill" d="M 12 104.79C 11.5556 104.79 11.1111 104.79 10.6667 105.013L 9.33333 105.013C 6.88889 105.013 5.55555 104.568 4.88889 103.456C 4.88889 102.788 5.33333 102.121 6.22222 101.453L 7.11111 100.563L 11.7778 100.563L 12.4444 99.8958L 12.6667 98.3384L 12.8889 96.336C 12.8889 89.884 12.6667 83.8769 12.4444 78.7597L 12.2222 72.7526L 12 60.9609C 12 56.7337 12.2222 50.5041 12.4444 42.0497L 12.6667 23.3609C 12.6667 15.129 12.4444 8.8994 11.7778 4.67218C 10.8889 4.4497 9.11111 4.22722 6.88889 4.22722L 5.11111 4.4497C 4.44444 4.4497 3.77778 4.67218 3.11111 4.67218C 1.11111 4.67218 -4.23855e-07 3.78225 -4.23855e-07 2.00237C -4.23855e-07 1.5574 0.444444 1.11242 1.55555 0.667454C 2.44444 0.222483 3.33333 7.90426e-14 4 7.90426e-14C 8 7.90426e-14 12.2222 0.222483 16.2222 0.667454C 18.6667 0.667454 21.1111 1.33491 23.5556 2.22485C 25.5555 2.89231 26.4444 3.78225 26.4444 4.89467C 26.4444 5.11716 26.2222 5.56213 26 6.22958L 22.2222 6.67455C 21.5556 6.0071 20 5.78461 17.5556 5.78461L 16.6667 6.22958C 16.8889 7.11952 17.1111 10.0118 17.1111 14.684C 17.1111 21.8035 17.1111 28.2556 16.8889 33.8177L 16.6667 52.9514C 16.6667 57.8461 16.8889 63.6307 17.3333 70.5278C 17.5556 78.3147 17.7778 84.3218 17.7778 88.3266L 17.7778 90.3289C 17.7778 90.9964 17.5556 92.1088 17.5556 93.2212C 17.5556 95.6686 17.7778 97.226 18 97.671L 17.7778 97.8934C 17.7778 99.0059 18.8889 99.4508 21.3333 99.4508C 22.2222 99.4508 23.1111 99.4508 23.7778 99.2283L 26.2222 99.2283C 29.3333 99.2283 30.8889 99.8958 30.8889 101.453C 30.8889 102.343 30.6667 103.233 30 103.678C 29.3333 104.345 28.4444 104.568 27.3333 104.568C 26.4444 104.568 25.5556 104.568 24.6667 104.346C 24 104.568 23.1111 104.568 22.2222 104.568C 21.5556 104.568 20.6667 104.79 19.3333 105.458C 18 106.125 17.1111 106.348 16.4444 106.348C 14 106.348 12.4444 105.903 12 104.79Z"/>
<path id="path8_fill" d="M -3.39084e-06 107.015C 1.11111 97.226 1.55555 84.3218 1.55555 67.8579C 1.55555 60.7384 1.77778 49.8367 2.44445 35.3751C 3.11111 22.026 3.55556 11.1243 3.55556 3.11479C 3.55556 2.22485 4 1.33491 4.88889 0.88994C 5.77778 0.44497 6.88889 -3.39485e-06 8 -3.39485e-06C 11.7778 -3.39485e-06 15.7778 0.444972 20.4444 1.33491C 24.8889 2.22485 27.1111 3.33728 27.1111 4.67219C 27.1111 6.45207 25.3333 7.34201 21.5556 7.34201C 19.1111 6.22959 16.2222 5.78461 12.4444 5.78461L 10.4444 6.0071C 10.2222 6.0071 9.77778 6.22958 9.77778 6.45207C 9.77778 6.67455 9.77778 7.11952 9.55556 7.56449C 9.33334 8.45443 9.11111 9.12189 8.88889 9.34437C 8.88889 14.239 8.66666 19.8012 8.22222 26.4757C 7.77778 32.7053 7.55556 38.2674 7.55556 43.1621L 7.55556 48.7242C 7.55556 49.1692 8.44445 49.3917 10.2222 49.1692C 15.7778 49.1692 18.4444 50.0591 18.4444 51.839C 18.4444 52.729 18 53.3964 17.3333 54.0639C 16.4444 54.7313 15.5556 54.9538 14.6667 54.9538C 14 54.9538 13.1111 54.7313 12 54.5088C 10.8889 54.2864 10 54.0639 9.33333 54.0639C 7.33333 54.0639 6.44444 56.7337 6.44444 61.8508L 6.44444 80.0946C 6.44444 82.7644 6.66667 86.5467 6.88889 91.4414C 7.11111 96.5585 7.33334 100.563 7.33334 103.011C 7.33334 107.238 6 109.463 3.55556 109.463L -3.39084e-06 107.015Z"/>
<path id="path9_fill" d="M 0.444443 104.79L 0.444443 102.788C 0.444443 102.343 0.66667 101.676 0.66667 100.786L -3.39084e-06 100.118C 0.888886 97.8934 1.33334 95.6686 1.33334 93.4437C 1.33334 90.9964 1.11111 87.4366 0.888889 82.7645L 0.66667 72.0852C 0.66667 66.7455 0.888886 58.7361 1.11111 48.0568C 1.55555 38.4899 1.77778 30.4805 1.77778 23.8059L 1.55555 14.239C 1.33333 11.3467 1.33334 8.23195 1.33334 4.67219C 1.33334 3.11479 1.77778 2.00236 2.44445 1.11242C 3.11111 0.444967 4.44444 -3.39485e-06 6 -3.39485e-06C 7.11111 -3.39485e-06 8 0.222485 8.66667 0.88994C 8.88889 0.88994 10.4444 1.11242 13.3333 1.55739C 16 1.77988 18.2222 2.44734 20.2222 3.11479C 22.2222 3.78225 23.3333 4.4497 23.3333 5.56212C 23.3333 6.67455 22.2222 7.78698 20.2222 8.67692C 14.2222 6.67455 9.77778 5.56212 7.11111 5.56212L 6.22223 6.45207C 6.22223 7.34201 6.44444 9.78934 6.44444 13.3491C 6.44444 18.0213 6.44445 22.026 6.22223 25.8083C 6.22223 29.5905 6 33.8177 6 38.2674C 6 41.3822 6.66667 42.7171 8.22222 42.7171L 10.8889 42.4947C 11.7778 42.4947 12.6667 42.2722 13.5556 42.2722C 17.7778 42.2722 19.7778 43.1621 19.7778 45.1645C 19.7778 46.2769 19.5556 47.3893 18.8889 48.0568C 18.4444 48.9467 17.5556 49.1692 16.4444 49.1692C 14.8889 49.1692 13.5556 48.7242 12.6667 47.8343L 7.55556 46.9444L 6.66666 46.9444L 5.77778 47.8343L 5.77778 48.2793C 6 50.0591 6 54.2864 6 60.9609C 6 65.1881 6 68.9704 5.77778 72.3076L 5.55555 83.6544C 5.55555 87.8816 5.77778 92.1088 6 96.5585C 6 99.0059 6.66667 100.563 7.55556 101.453C 8.44444 102.343 10.2222 102.566 12.8889 102.566L 15.7778 102.343C 16.6667 102.343 17.7778 102.121 18.8889 102.121C 22 102.121 23.5555 102.788 23.5555 104.123C 23.5555 106.125 21.1111 107.015 16.4444 107.015L 3.33333 107.015C 1.77777 108.128 0.666665 107.015 0.444443 104.79Z"/>
</defs>
</svg>
