<svg width="38" height="36" viewBox="0 0 38 36" version="1.1" xmlns="http://www.w3.org/2000/svg" xmlns:xlink="http://www.w3.org/1999/xlink">
<title>support</title>
<desc>Created using Figma</desc>
<g id="Canvas" transform="translate(-1631 -1052)">
<g id="support">
<g id="Vector">
<use xlink:href="#path0_fill" transform="translate(1631 1052)" fill="#FFFFFF"/>
</g>
</g>
</g>
<defs>
<path id="path0_fill" d="M 35.6163 10.8188C 34.4885 9.06935 33.2939 8.22871 32.8338 7.95607C 32.6928 7.71373 32.5445 7.47896 32.3886 7.24418C 32.7745 6.52472 32.6706 5.60078 32.077 4.99491L 30.222 3.10159C 29.8733 2.74564 29.4058 2.54874 28.9087 2.54874C 28.5896 2.54874 28.2854 2.63204 28.0109 2.78351C 26.7495 1.92015 25.3768 1.23856 23.9225 0.769013C 23.5738 0.655413 23.2028 0.852319 23.0915 1.20826C 22.9802 1.56421 23.1731 1.94287 23.5218 2.05647C 24.7461 2.45029 25.9111 3.01071 26.9869 3.71503L 21.8746 8.93303C 21.8672 8.9406 21.8598 8.94818 21.8524 8.95575C 20.0493 8.24386 18.0608 8.24386 16.2578 8.95575C 16.2503 8.94818 16.2429 8.9406 16.2355 8.93303L 11.1529 3.70745C 14.0911 1.78383 17.5933 0.996212 21.0955 1.48848C 21.4591 1.54149 21.7856 1.284 21.8375 0.912905C 21.8895 0.541814 21.6372 0.208588 21.2736 0.155575C 17.3336 -0.397276 13.4011 0.53424 10.1363 2.77594C 9.86179 2.62447 9.55757 2.54116 9.23852 2.54116C 8.74138 2.54116 8.28135 2.73807 7.92519 3.09402L 6.07022 4.98734C 5.72148 5.34329 5.52856 5.8204 5.52856 6.32781C 5.52856 6.65347 5.61018 6.96397 5.75858 7.24418C 5.6176 7.45624 5.48404 7.67586 5.35049 7.88791L 5.33565 7.85005C 5.26887 7.88034 3.76263 8.64524 2.36768 10.8188C 0.10461 14.3479 -0.140247 18.8919 0.0526709 22.0879C 0.12687 23.3374 0.624004 24.3674 1.49213 25.0793C 2.36768 25.7912 3.59197 26.1699 4.98691 26.1623C 5.17241 26.1623 5.36533 26.1547 5.55824 26.1396C 5.47662 26.7076 5.6547 27.3059 6.07764 27.7451L 7.93261 29.6384C 8.28135 29.9944 8.7488 30.1913 9.24594 30.1913C 9.56499 30.1913 9.86921 30.108 10.1437 29.9565C 10.166 29.9717 10.1883 29.9868 10.2105 30.0019C 10.8635 31.6529 13.1414 36 19.0847 36C 25.0281 36 27.306 31.6529 27.9589 30.0019C 27.9812 29.9868 28.0035 29.9717 28.0257 29.9565C 28.3003 30.108 28.6045 30.1913 28.9235 30.1913C 29.4207 30.1913 29.8807 29.9944 30.2369 29.6384L 32.0918 27.7451C 32.5148 27.3134 32.6928 26.7151 32.6187 26.1547C 32.7522 26.1623 32.8858 26.1623 33.0193 26.1623C 34.4068 26.1623 35.6386 25.7836 36.5141 25.0717C 37.3822 24.3674 37.8794 23.3299 37.9536 22.0803C 38.1316 18.8919 37.8868 14.3479 35.6163 10.8188ZM 22.8318 9.87212L 28.5377 4.04825C 28.6416 3.94222 28.7751 3.88921 28.9161 3.88921C 29.0571 3.88921 29.1907 3.9498 29.2945 4.04825L 31.1495 5.94158C 31.3573 6.15363 31.3573 6.502 31.1495 6.71405L 25.4436 12.5379C 25.3397 12.6439 25.2062 12.697 25.0652 12.697C 24.9242 12.697 24.7906 12.6364 24.6868 12.5379L 22.8318 10.6446C 22.7279 10.5386 22.676 10.4022 22.676 10.2584C 22.676 10.1145 22.7279 9.97814 22.8318 9.87212ZM 21.3552 10.1826C 21.3552 10.2053 21.3552 10.2281 21.3552 10.2584C 21.3552 10.7658 21.5481 11.2353 21.8969 11.5988L 23.7519 13.4922C 24.1006 13.8481 24.568 14.045 25.0652 14.045C 25.0874 14.045 25.1171 14.045 25.1394 14.045C 25.6959 15.5445 25.6959 17.1955 25.1394 18.695C 25.1171 18.695 25.0949 18.695 25.0652 18.695C 24.568 18.695 24.108 18.8919 23.7519 19.2479L 21.8969 21.1412C 21.5481 21.4971 21.3552 21.9742 21.3552 22.4817C 21.3552 22.5044 21.3552 22.5271 21.3552 22.5574C 19.8861 23.1254 18.2685 23.1254 16.7994 22.5574C 16.8217 22.05 16.6436 21.535 16.2578 21.1488L 14.4028 19.2554C 14.054 18.8995 13.5866 18.7026 13.0894 18.7026C 13.0672 18.7026 13.0449 18.7026 13.0153 18.7026C 12.4588 17.2031 12.4588 15.5521 13.0153 14.0526C 13.0375 14.0526 13.0598 14.0526 13.0894 14.0526C 13.5866 14.0526 14.0466 13.8557 14.4028 13.4997L 16.2578 11.6064C 16.6362 11.2202 16.8142 10.7052 16.7994 10.1978C 18.276 9.6222 19.8861 9.6222 21.3552 10.1826ZM 6.67865 24.4583C 5.16499 22.05 4.36364 19.263 4.36364 16.37C 4.36364 13.4694 5.16499 10.69 6.67865 8.28173L 11.791 13.4997C 11.7984 13.5073 11.8058 13.5149 11.8132 13.5224C 11.1158 15.3628 11.1158 17.3924 11.8132 19.2327C 11.8058 19.2403 11.7984 19.2479 11.791 19.2554L 6.67865 24.4583ZM 7.01255 5.94158L 8.86752 4.04825C 8.9714 3.94222 9.10496 3.88921 9.24594 3.88921C 9.38692 3.88921 9.52047 3.9498 9.62435 4.04825L 15.3303 9.87212C 15.538 10.0842 15.538 10.4325 15.3303 10.6446L 13.4753 12.5379C 13.3714 12.6439 13.2378 12.697 13.0969 12.697C 12.9559 12.697 12.8223 12.6364 12.7185 12.5379L 7.01255 6.71405C 6.90867 6.60803 6.85673 6.47171 6.85673 6.32781C 6.85673 6.17635 6.90867 6.04003 7.01255 5.94158ZM 2.31574 24.0266C 1.73699 23.5571 1.41793 22.8755 1.36599 22.0045C 1.18792 19.051 1.39567 14.8629 3.41389 11.6443C 3.59939 11.3489 3.78489 11.0838 3.97038 10.8491C 3.36195 12.5985 3.04289 14.4615 3.04289 16.3624C 3.04289 19.369 3.8294 22.262 5.33565 24.7991C 4.11136 24.8673 3.01321 24.5946 2.31574 24.0266ZM 9.24594 28.8432C 9.10496 28.8432 8.9714 28.7826 8.86752 28.6842L 7.01255 26.7909C 6.80479 26.5788 6.80479 26.2304 7.01255 26.0184L 12.7185 20.1945C 12.8223 20.0885 12.9559 20.0355 13.0969 20.0355C 13.2378 20.0355 13.3714 20.0961 13.4753 20.1945L 15.3303 22.0879C 15.538 22.2999 15.538 22.6483 15.3303 22.8603L 14.3063 23.9054C 14.0466 24.1705 14.0466 24.5946 14.3063 24.8597C 14.566 25.1247 14.9815 25.1247 15.2412 24.8597L 16.2652 23.8146C 16.2726 23.807 16.28 23.7994 16.2874 23.7918C 17.1852 24.1478 18.135 24.322 19.0847 24.322C 20.0345 24.322 20.9768 24.1402 21.882 23.7918C 21.8895 23.7994 21.8969 23.807 21.9043 23.8146L 27.0166 29.0326C 24.6571 30.5775 21.9266 31.3954 19.0922 31.3954C 16.2503 31.3954 13.5272 30.5775 11.1677 29.0326L 13.8908 26.2532C 14.1505 25.9881 14.1505 25.564 13.8908 25.2989C 13.6311 25.0339 13.2156 25.0339 12.9559 25.2989L 9.63177 28.6918C 9.52047 28.7902 9.38692 28.8432 9.24594 28.8432ZM 19.0773 34.652C 15.4712 34.652 13.4382 32.8116 12.3475 31.2288C 14.4399 32.2209 16.7252 32.7359 19.0773 32.7359C 21.4294 32.7359 23.7148 32.2209 25.8072 31.2288C 24.7239 32.8116 22.6834 34.652 19.0773 34.652ZM 31.1495 26.7909L 29.2945 28.6842C 29.1907 28.7902 29.0571 28.8432 28.9161 28.8432C 28.7751 28.8432 28.6416 28.7826 28.5377 28.6842L 22.8318 22.8603C 22.7279 22.7543 22.676 22.618 22.676 22.4741C 22.676 22.3302 22.7353 22.1939 22.8318 22.0879L 24.6868 20.1945C 24.7906 20.0885 24.9242 20.0355 25.0652 20.0355C 25.2062 20.0355 25.3397 20.0961 25.4436 20.1945L 31.1495 26.0184C 31.3573 26.2304 31.3573 26.5788 31.1495 26.7909ZM 36.618 22.0045C 36.566 22.8755 36.247 23.5571 35.6682 24.0266C 35.0004 24.5719 33.9765 24.8445 32.819 24.8142C 33.4942 23.6707 34.0359 22.4438 34.4143 21.1563C 34.5181 20.8004 34.3252 20.4217 33.9765 20.3157C 33.6278 20.2097 33.2568 20.4066 33.1529 20.7625C 32.7596 22.0727 32.2031 23.3147 31.476 24.4583L 26.3637 19.2403C 26.3562 19.2327 26.3488 19.2251 26.3414 19.2176C 27.0389 17.3773 27.0389 15.3476 26.3414 13.5073C 26.3488 13.4997 26.3562 13.4922 26.3637 13.4846L 31.476 8.26658C 33.3903 11.3035 34.1546 14.9235 33.6352 18.5435C 33.5832 18.9146 33.8355 19.2554 34.1917 19.3084C 34.2213 19.316 34.2584 19.316 34.2881 19.316C 34.6072 19.316 34.8891 19.0737 34.9411 18.7405C 35.3047 16.1958 35.0895 13.6436 34.3252 11.2656C 34.4068 11.3792 34.4885 11.508 34.5701 11.6291C 36.5883 14.8553 36.8035 19.051 36.618 22.0045Z"/>
</defs>
</svg>
